<svg xmlns="http://www.w3.org/2000/svg" viewBox="1044.579 3115 129.766 129.767"><defs><style>.a{fill:#bc40f2;}.b{fill:#282828;}.c{fill:#ff8300;}.d{fill:#c8cacc;}.e{fill:#dfe1e3;}.f{fill:#fff;}.g{fill:#ecf0f1;}.h{fill:#e01919;}.i{fill:#fed198;}.j{fill:#807d7d;}</style></defs><g transform="translate(1044.579 3115)"><path class="a" d="M1435.883,466A64.883,64.883,0,1,1,1371,530.883,64.883,64.883,0,0,1,1435.883,466Zm0,0" transform="translate(-1371 -466)"/><path class="b" d="M1401.3,479.9h54.607a2.924,2.924,0,0,1,2.9,2.9v72.524a2.924,2.924,0,0,1-2.9,2.9H1401.3a2.924,2.924,0,0,1-2.9-2.9V482.864a2.938,2.938,0,0,1,2.9-2.964Zm0,0" transform="translate(-1380.351 -470.744)"/><rect class="c" width="55.595" height="65.278" transform="translate(20.486 15.743)"/><path class="d" d="M1443.14,590.4a2.24,2.24,0,1,1-2.24,2.24,2.221,2.221,0,0,1,2.24-2.24Zm0,0" transform="translate(-1394.856 -508.456)"/><rect class="e" width="43.343" height="57.571" transform="translate(78.519 20.354)"/><path class="f" d="M1531.587,495.5c-14.162,0-27.666-6.06-42.487,0v53.948h42.487Zm0,0" transform="translate(-1411.306 -475.15)"/><rect class="e" width="42.223" height="57.571" transform="translate(33.792 20.354)"/><path class="f" d="M1424.6,495.535c14.162,0,34.648-5.928,42.487,0v53.949H1424.6Zm0,0" transform="translate(-1389.293 -475.181)"/><rect class="g" width="1.449" height="53.949" transform="translate(77.069 20.354)"/><rect class="c" width="16.402" height="2.24" transform="translate(38.93 24.965)"/><path class="e" d="M1430.1,551h32.8v1.054h-32.8Zm0-2.108h32.8v1.054h-32.8Zm0-14.1h32.8v1.054h-32.8Zm0,10.737h14.36v1.054H1430.1Zm0-2.108h32.8v1.054h-32.8Zm0-2.174h32.8v1.054h-32.8Zm0-2.174h32.8v1.054h-32.8Zm0-2.108h32.8v1.054h-32.8Zm0,22.66h11.264v1.054H1430.1Zm0-2.174h32.8v1.054h-32.8Zm0-2.174h32.8v1.054h-32.8Zm0-2.108h32.8v1.054h-32.8Zm0,0" transform="translate(-1391.17 -489.481)"/><path class="e" d="M1496.5,528h32.8v1.054h-32.8Zm0-2.108h32.8v1.054h-32.8Zm0-14.1h32.8v1.054h-32.8Zm0,10.737h14.36v1.054H1496.5Zm0-2.108h32.8v1.054h-32.8Zm0-2.174h32.8v1.054h-32.8Zm0-2.108h14.36V517.2H1496.5Zm0-2.174h32.8v1.054h-32.8Zm0,22.66h11.264v1.054H1496.5Zm0-2.174h32.8v1.054h-32.8Zm0-2.108h32.8v1.054h-32.8Zm0-2.174h32.8v1.054h-32.8Zm0,0" transform="translate(-1413.832 -481.631)"/><path class="h" d="M1501.6,493.2l4.414-.4v23.055l-2.24-1.647-2.174,1.647Zm0,0" transform="translate(-1415.572 -475.147)"/><path class="d" d="M1433.391,484.2h13.767a.817.817,0,0,1,.791.856.8.8,0,0,1-.791.79h-13.767a.8.8,0,0,1-.79-.79.817.817,0,0,1,.79-.856Zm0,0" transform="translate(-1392.023 -472.211)"/><path class="i" d="M1506.672,551.776l.264,5.27,1.515,1.91.066-10.474-.461-10.21L1506.87,527.6c-.264-2.24,3.821-2.832,4.479-.132l2.24,9.485.593,8.563h.79l-.264-4.018a2.88,2.88,0,0,1,2.833-2.964,2.967,2.967,0,0,1,2.964,2.833l1.186,4.413-.264-2.832a2.841,2.841,0,0,1,2.833-2.964c2.766,0,3.359,3.755,4.282,6.06l-.066-1.186a2.416,2.416,0,0,1,3.162-2.174c1.647.4,2.964,6.324,3.1,8.761l-.988,15.809a7.2,7.2,0,0,1-2.174,4.875l-.4,19.7a74.008,74.008,0,0,1-7.312,7.773c-3.425.725-7.048.79-10.935,2.5l.264-30.1c-3.359-1.449-11.594-9.683-11.594-9.683l.264-13.108c-.066-.79,4.874-.461,4.808,2.569Zm0,0" transform="translate(-1415.572 -486.365)"/><path class="f" d="M1513.819,527.9l.329,1.515-2.833.066-.329-1.515c-.329-1.844,2.635-1.91,2.833-.066Zm0,0" transform="translate(-1418.767 -486.665)"/><path class="f" d="M1503.351,562.15c0,.066.2,3.1.2,3.1H1502.1l.066-3.162c0-.132.856-.461,1.185.066Zm0,0" transform="translate(-1415.743 -498.716)"/><path class="b" d="M1515.82,606.1l22.067-.4.4,9.749A65.6,65.6,0,0,1,1514.7,636.2Zm0,0" transform="translate(-1420.043 -513.678)"/><path class="f" d="M1517.4,601.932l20.815-.132v2.569l-20.815.329Zm0,0" transform="translate(-1420.964 -512.347)"/><path class="d" d="M1543.413,614.848a1.547,1.547,0,0,1,1.581,1.515,1.491,1.491,0,0,1-1.515,1.515,1.547,1.547,0,0,1-1.581-1.515,1.451,1.451,0,0,1,1.515-1.515Zm0-4.348a1.547,1.547,0,0,1,1.581,1.515,1.491,1.491,0,0,1-1.515,1.515,1.547,1.547,0,0,1-1.581-1.515,1.417,1.417,0,0,1,1.515-1.515Zm0,0" transform="translate(-1429.323 -515.316)"/><path class="i" d="M1401.071,527.4l-13.7,4.874-4.809,10.013s-.922,2.371.659,6.916l6.06,17.456-.527,7.9h9.156s1.449-21.211-1.318-26.151a31.353,31.353,0,0,1-3.228-11.33s8.563-2.5,9.09-5.928c.527-3.557-1.383-3.755-1.383-3.755Zm0,0" transform="translate(-1374.854 -486.955)"/><path class="f" d="M1407.1,530.14l2.635-.922a1.145,1.145,0,0,0-.593-1.317l-2.437.922.4,1.317Zm0,0" transform="translate(-1383.184 -487.126)"/><rect class="f" width="18.905" height="3.03" transform="translate(13.174 87.543)"/><path class="b" d="M1389.3,602.8h20.947l1.779,32.277A65.852,65.852,0,0,1,1389.3,615.25Zm0,0" transform="translate(-1377.246 -512.688)"/><path class="d" d="M1407.583,483.4a1.383,1.383,0,1,1-1.383,1.383,1.351,1.351,0,0,1,1.383-1.383Zm0,0" transform="translate(-1383.013 -471.938)"/><path class="j" d="M1407.686,483.6a1.186,1.186,0,1,1-1.186,1.186,1.181,1.181,0,0,1,1.186-1.186Zm0,0" transform="translate(-1383.116 -472.007)"/><path class="d" d="M1408.13,484.9a.329.329,0,1,1-.329.329.353.353,0,0,1,.329-.329Zm0,0" transform="translate(-1383.56 -472.45)"/><path class="d" d="M1416.013,611.748a1.547,1.547,0,0,1,1.581,1.515,1.491,1.491,0,0,1-1.515,1.515,1.547,1.547,0,0,1-1.581-1.515,1.49,1.49,0,0,1,1.515-1.515Zm0-4.348a1.547,1.547,0,0,1,1.581,1.515,1.491,1.491,0,0,1-1.515,1.515,1.547,1.547,0,0,1-1.581-1.515,1.453,1.453,0,0,1,1.515-1.515Zm0,0" transform="translate(-1385.844 -514.258)"/><rect class="g" width="32.738" height="14.096" transform="translate(38.93 29.247)"/></g></svg>