<svg xmlns="http://www.w3.org/2000/svg" viewBox="1345 2169 128.657 128.657"><defs><style>.a{fill:#666;}.b{fill:#4a6ef4;}.c{fill:#0b32af;}.d{fill:#6f13bf;}.e{fill:#a43df2;}.f{fill:#fff;}.g{fill:#ecf0f1;}.h{fill:#ff8300;}.i{fill:#fffc00;}.j{fill:#3f77eb;}.k{fill:#b6b6b8;}.l{fill:#c2c2c4;}.m{fill:#b0b0b0;}</style></defs><g transform="translate(-738 -2337.824)"><path class="a" d="M683.6,98.9" transform="translate(1419.787 4482.05)"/><circle class="b" cx="64.329" cy="64.329" r="64.329" transform="translate(2083 4506.824)"/><ellipse class="c" cx="45.822" cy="3.563" rx="45.822" ry="3.563" transform="translate(2101.507 4609.254)"/><path class="d" d="M679.74,41.1h95.5a5.744,5.744,0,0,1,5.74,5.74v58.786H674V46.741A5.724,5.724,0,0,1,679.74,41.1Z" transform="translate(1419.886 4482.647)"/><path class="e" d="M677.9,101.806h99.165V46.78a1.861,1.861,0,0,0-1.781-1.88h-95.5A1.8,1.8,0,0,0,678,46.78l-.1,55.026Z" transform="translate(1419.846 4482.608)"/><path class="f" d="M780.883,106.3v6.235c0,3.167-2.87,5.74-6.334,5.74H680.234c-3.464,0-6.334-2.573-6.334-5.74V106.3Z" transform="translate(1419.887 4481.974)"/><path class="g" d="M684.727,68.7a20.043,20.043,0,0,1,19.2,14.251,13.009,13.009,0,0,1,7.62,10.194,8.243,8.243,0,0,1,2.177-.3,9.876,9.876,0,0,1,5.839,1.979,6.714,6.714,0,0,1,6.631-5.641,7.174,7.174,0,0,0,2.375,0,6.714,6.714,0,0,1,6.631,5.641,9.254,9.254,0,0,1,5.839-1.979,7.719,7.719,0,0,1,2.177.3,13.6,13.6,0,0,1,7.62-10.194,19.923,19.923,0,0,1,19.2-14.251,19.423,19.423,0,0,1,6.829,1.188v32.065H677.7V69.987a21.98,21.98,0,0,1,7.026-1.287Z" transform="translate(1419.848 4482.362)"/><g transform="translate(2097.746 4537.979)"><path class="f" d="M684.729,69.9a20.043,20.043,0,0,1,19.2,14.251,13.009,13.009,0,0,1,7.62,10.194,8.244,8.244,0,0,1,2.177-.3,9.875,9.875,0,0,1,5.839,1.979,6.714,6.714,0,0,1,6.631-5.641,7.176,7.176,0,0,0,2.375,0,6.714,6.714,0,0,1,6.631,5.641,9.254,9.254,0,0,1,5.839-1.979,7.718,7.718,0,0,1,2.177.3,13.6,13.6,0,0,1,7.62-10.194,19.923,19.923,0,0,1,19.2-14.251,19.424,19.424,0,0,1,6.829,1.188v30.878H677.9V71.187a19.909,19.909,0,0,1,6.829-1.287Z" transform="translate(-677.9 -55.63)"/><path class="f" d="M738.59,57.578a14.27,14.27,0,0,1-1.781,4.355,26.75,26.75,0,0,1-1.979,2.474l.3-1.386-3.167,2.969.1-1.188a21.474,21.474,0,0,1-2.771,1.583c-1.484.693-1.484.693-.891-.891a18.6,18.6,0,0,1,1.386-2.87l-1.188.1,2.672-3.365-1.287.4s1.188-1.188,2.276-2.177a16.96,16.96,0,0,1,4.256-2.078l.99.99,1.089,1.089Z" transform="translate(-678.418 -55.481)"/></g><g transform="translate(2146.042 4528.597)"><path class="h" d="M746.636,52.2l1.682,6.136L740.5,67.144l.495-10.589,5.641-4.355Z" transform="translate(-726.843 -46.064)"/><path class="h" d="M741.149,47.188,734.914,46,726.7,54.412l10.49-1.287,3.959-5.938Z" transform="translate(-726.7 -46)"/></g><path class="i" d="M740.648,57.946l-2.474-2.276L735.7,53.394c4.75-5.542,10.688-30.383,31.867-29.294C771.229,44.586,745.4,53.295,740.648,57.946Z" transform="translate(1419.249 4482.823)"/><path class="h" d="M767.614,32.809a19.732,19.732,0,0,1-8.214-7.62,22.837,22.837,0,0,1,8.412-1.089,21.35,21.35,0,0,1-.2,8.709Z" transform="translate(1419.004 4482.823)"/><rect class="j" width="2.375" height="6.73" transform="matrix(0.681, -0.733, 0.733, 0.681, 2153.492, 4537.825)"/><circle class="f" cx="3.761" cy="3.761" r="3.761" transform="translate(2172.169 4515.335)"/><circle class="j" cx="3.068" cy="3.068" r="3.068" transform="translate(2172.862 4516.028)"/><g transform="translate(2135.453 4544.233)"><path class="f" d="M726.849,61.8c-3.86,2.771-10.688,22.169,4.75,32.461,0,0-11.777-13.756-.693-26.919C728.927,68.134,725.365,71.4,726.849,61.8Z" transform="translate(-716.062 -61.8)"/><circle class="f" cx="2.276" cy="2.276" r="2.276" transform="translate(0 25.039)"/><circle class="f" cx="0.693" cy="0.693" r="0.693" transform="translate(11.876 22.367)"/><circle class="f" cx="0.99" cy="0.99" r="0.99" transform="translate(2.771 19.694)"/><circle class="f" cx="0.99" cy="0.99" r="0.99" transform="translate(19.892 28.107)"/></g><circle class="k" cx="1.979" cy="1.979" r="1.979" transform="translate(2145.349 4592.035)"/><path class="l" d="M740.149,127.306l9.1,2.87H706.5l7.324-2.87V118.3h26.424l-.1,9.006Z" transform="translate(1419.55 4481.85)"/><path class="m" d="M740.224,127.306,713.8,118.3h26.424Z" transform="translate(1419.475 4481.85)"/><path class="g" d="M713.724,127.4h26.424l9.1,2.87v1.287H706.4V130.27Z" transform="translate(1419.552 4481.755)"/></g></svg>