<svg xmlns="http://www.w3.org/2000/svg" viewBox="745 3112 130 130"><defs><style>.a{fill:#bc40f2;}.b{fill:#e01919;}.c{fill:#ff8300;}.d{fill:#fffc00;}.e{fill:#fff;}.f{fill:#e6e9ee;}.g{fill:#10ca02;}.h{fill:#acb3ba;}</style></defs><g transform="translate(-2052.014 -2419.045)"><circle class="a" cx="65" cy="65" r="65" transform="translate(2797.014 5531.045)"/><rect class="b" width="14.005" height="42.552" transform="translate(2874.478 5552.489)"/><rect class="c" width="14.005" height="32.634" transform="translate(2855.112 5562.54)"/><rect class="d" width="14.005" height="22.515" transform="translate(2835.813 5572.458)"/><path class="e" d="M1038.36,550.092H968.2V532.2h70.294a8.866,8.866,0,0,1,8.912,8.912h0A9.037,9.037,0,0,1,1038.36,550.092Z" transform="translate(1854.411 5082.743)"/><g transform="translate(2859.132 5617.086)"><path class="f" d="M1022.767,536.472h40.541a4.035,4.035,0,0,0-.536-.536h0l-.536-.536H1022.7v1.072Z" transform="translate(-1022.7 -535.4)"/><path class="f" d="M1022.8,539.572h41.747a.891.891,0,0,1-.2-.536h0c-.134-.2-.2-.335-.335-.536H1022.8Z" transform="translate(-1022.733 -536.423)"/><path class="f" d="M1022.767,542.772h42.485c0-.2-.134-.335-.134-.536h-.134c0-.2-.134-.335-.134-.536H1022.7v1.072Z" transform="translate(-1022.7 -537.478)"/><path class="f" d="M1022.8,545.772h42.552v-.536h0V544.7H1022.8Z" transform="translate(-1022.733 -538.468)"/><path class="f" d="M1022.8,548.772h42.149c0-.2.134-.335.134-.536h0c0-.2.134-.335.134-.536h-42.351v1.072Z" transform="translate(-1022.733 -539.458)"/><path class="f" d="M1022.8,551.972h41.211c.134-.2.2-.335.335-.536h0a.891.891,0,0,0,.2-.536H1022.8Z" transform="translate(-1022.733 -540.513)"/><path class="f" d="M1022.8,554.972h39.536a4.04,4.04,0,0,0,.536-.536h0l.536-.536h-40.541v1.072Z" transform="translate(-1022.733 -541.503)"/></g><path class="b" d="M966.5,548.491h71.3a7.841,7.841,0,1,0,0-15.68H966.5V530.8h71.3a9.851,9.851,0,1,1,0,19.7H966.5Z" transform="translate(1854.973 5083.205)"/><path class="f" d="M1048.245,500.505c-.134-.4-.335-.737,0-1.005h-71.5a8.845,8.845,0,0,0,0,17.691h71.634c-.335-.335-.2-.536,0-1.005A13.275,13.275,0,0,1,1048.245,500.505Z" transform="translate(1854.51 5093.53)"/><path class="g" d="M1047.817,515.591H976.585a7.841,7.841,0,1,1,0-15.68h71.3V497.9h-71.3a9.851,9.851,0,1,0,0,19.7h71.3v-2.01Z" transform="translate(1854.939 5094.058)"/><g transform="translate(2850.086 5596.18)"><path class="h" d="M1020.5,504.2v2.412h43.088a11.941,11.941,0,0,1,.938-2.412Z" transform="translate(-1012.928 -504.2)"/><path class="h" d="M1033.4,513.312h34.041a7.293,7.293,0,0,1,0-2.412H1033.4Z" transform="translate(-1017.184 -506.41)"/><path class="h" d="M1009.267,519.912h51.464c-.4-.8-.6-1.608-.938-2.412H1009.2v2.412Z" transform="translate(-1009.2 -508.588)"/></g></g></svg>