<svg xmlns="http://www.w3.org/2000/svg" viewBox="1043.392 2163 129.67 129.67"><defs><style>.a{fill:#4a6ef4;}.b{fill:#9d2aff;}.c{fill:#dfe1e3;}.d{fill:#fff;}.e{fill:#ecf0f1;}.f{fill:#ff8300;}.g{fill:#c3cccf;}.h{fill:#fed198;}.i{fill:#282828;}.j{fill:#c8cacc;}</style></defs><g transform="translate(1043.392 2163)"><path class="a" d="M1452.435,0A64.835,64.835,0,1,1,1387.6,64.835,64.856,64.856,0,0,1,1452.435,0Zm0,0" transform="translate(-1387.6 0)"/><rect class="b" width="107.257" height="70.233" transform="translate(11.207 12.615)"/><rect class="c" width="51.516" height="67.358" transform="translate(64.835 12.615)"/><path class="d" d="M1547.8,19.3c-16.546,0-32.388-7.041-49.7,0V82.371h49.7Zm0,0" transform="translate(-1433.265 -6.681)"/><rect class="c" width="51.516" height="67.358" transform="translate(13.319 12.615)"/><path class="d" d="M1413.4,19.333c16.546,0,40.485-6.924,49.7,0V82.408h-49.7Zm0,0" transform="translate(-1398.262 -6.718)"/><rect class="e" width="1.702" height="63.075" transform="translate(64.014 12.615)"/><rect class="f" width="26.521" height="3.638" transform="translate(19.363 16.135)"/><path class="g" d="M1420.6,53.225h38.373V54.4H1420.6Zm51.164,0h38.373V54.4h-38.373Zm0-15.725h38.373v1.173h-38.373Zm0,12.028h16.781V50.7h-16.781Zm0-2.406h38.373V48.3h-38.373Zm0-2.406h38.373V45.89h-38.373Zm0-2.406h16.781v1.173h-16.781Zm0-2.406h38.373v1.173h-38.373Zm0,15.725h25.7V56.8h-25.7ZM1420.6,37.5h38.373v1.173H1420.6Zm0,12.028h16.781V50.7H1420.6Zm0-2.406h38.373V48.3H1420.6Zm0-2.406h38.373V45.89H1420.6Zm0-2.406h38.373v1.173H1420.6Zm0-2.406h38.373v1.173H1420.6Zm0,25.347h13.2v1.173h-13.2Zm0-2.406h38.373v1.173H1420.6Zm0-2.406h38.373v1.173H1420.6Zm0-2.406h38.373v1.173H1420.6Zm0-2.406h38.373V56.8H1420.6Zm0,0" transform="translate(-1401.237 -15.497)"/><path class="h" d="M1429.521,102.671l-1.232,33.444a121.981,121.981,0,0,0,16.37,3.344c.939-.059,1.878-.176,2.817-.293l-1.526-37.141c1.643-.763,3.814-2.64,4.342-4.049h0l9.8-13.554a2.507,2.507,0,0,0-.528-3.462c-1.115-.821-2.406-.293-3.462.528l-6.4,5.4-.939-8.214.352-13.73a2.5,2.5,0,0,0-2.464-2.582,2.54,2.54,0,0,0-2.582,2.464l-.352,13.906h-.821l.469-18.952a2.524,2.524,0,0,0-5.046-.117l-.528,19.245h-.822l.411-16.311a2.524,2.524,0,0,0-5.046-.117l-.411,16.6h-.821l.293-11.97a2.524,2.524,0,1,0-5.046-.117l-.293,12.322-.059,1.7.645,15.842a8.11,8.11,0,0,0,1.878,5.046c.469.352.763.587,1,.763Zm0,0" transform="translate(-1403.469 -23.637)"/><path class="i" d="M1447.955,148.635l-20.184-.235-2.171,26.7a64.049,64.049,0,0,0,22.824,12.85Zm0,0" transform="translate(-1403.304 -61.327)"/><path class="d" d="M1449.352,142.493,1430.4,142.2v3.7l18.952.293Zm0,0" transform="translate(-1405.287 -58.765)"/><path class="j" d="M1435.377,155.4a1.841,1.841,0,0,0-1.877,1.819,1.93,1.93,0,0,0,1.877,1.878,1.848,1.848,0,1,0,0-3.7Zm0,0" transform="translate(-1406.569 -64.22)"/><path class="d" d="M1458.359,68.753l-.059,2.171,3.344.059.058-2.171c.118-1.643-3.462-1.7-3.344-.059Zm0,0" transform="translate(-1416.817 -27.915)"/><path class="d" d="M1448.659,60.222l-.059,2.171,3.344.059L1452,60.28c.059-1.7-3.462-1.76-3.344-.059Zm0,0" transform="translate(-1412.809 -24.372)"/><path class="d" d="M1438.458,64.753l-.058,2.171,3.344.059.058-2.171c.059-1.643-3.461-1.7-3.344-.059Zm0,0" transform="translate(-1408.594 -26.262)"/><path class="d" d="M1428.159,72.822l-.059,2.171,3.344.059.059-2.171c.059-1.7-3.462-1.76-3.344-.059Zm0,0" transform="translate(-1404.337 -29.579)"/><path class="d" d="M1478.277,98.779,1476.4,100.6l2.406,2.406,1.878-1.819c1.174-1.174-1.232-3.579-2.406-2.406Zm0,0" transform="translate(-1424.297 -40.691)"/><path class="h" d="M1509.274,72.191c1.115-.821,2.406-.352,3.462.528l6.454,5.457.469-1.643.469-4.049-.235-8.742-.176-8.86a2.469,2.469,0,0,1,2.464-2.582,2.543,2.543,0,0,1,2.582,2.464l.352,15.138h.645l-.235-3.52a2.468,2.468,0,0,1,2.464-2.582,2.541,2.541,0,0,1,2.582,2.464l.234,3.814h.763l-.235-2.464a2.467,2.467,0,0,1,2.464-2.582h0a2.581,2.581,0,0,1,2.582,2.464l.235,2.758.88.059-.059-1.408a2.47,2.47,0,0,1,2.464-2.582,2.543,2.543,0,0,1,2.582,2.464l.117,2.934.059.528-.645,15.9a8.111,8.111,0,0,1-1.878,5.046,4.391,4.391,0,0,1-.821.7l1,26.931a46.116,46.116,0,0,1-11.793,1.584,43.76,43.76,0,0,1-6.806-.528l1.173-28.633c-1.643-.763-3.872-2.7-4.342-4.049h0l-9.857-13.554a2.509,2.509,0,0,1,.587-3.462Zm0,0" transform="translate(-1437.457 -21.613)"/><path class="i" d="M1529.211,137.135l20.243-.235,2.993,34.207a63.942,63.942,0,0,1-23.646,12.615Zm0,0" transform="translate(-1445.952 -56.575)"/><path class="d" d="M1530.5,130.893l19.011-.293v3.7l-19.011.293Zm0,0" transform="translate(-1446.654 -53.971)"/><path class="j" d="M1555.177,143.9a1.933,1.933,0,0,1,1.936,1.819,1.891,1.891,0,0,1-1.878,1.878,1.933,1.933,0,0,1-1.936-1.819,1.854,1.854,0,0,1,1.878-1.878Zm0,0" transform="translate(-1456.077 -59.468)"/><path class="d" d="M1524.1,54.322l.059,2.171-3.4.059-.059-2.171c-.058-1.7,3.521-1.76,3.4-.059Zm-12.439,18.365,1.878,1.819-2.406,2.406-1.878-1.819c-1.232-1.173,1.174-3.579,2.406-2.406Zm0,0" transform="translate(-1437.736 -21.933)"/></g></svg>