<svg xmlns="http://www.w3.org/2000/svg" viewBox="1342.402 2616 134.598 134.598"><defs><style>.a{fill:#bc40f2;}.b{fill:#fff;}.c{fill:#4b7de3;}.d{fill:#ecf0f1;}.e{fill:#fffc00;}.f{fill:#ec4b53;}.g{fill:#15bdb1;}.h{fill:#10ca02;}.i{fill:#ff8300;}</style></defs><g transform="translate(1342.402 2616)"><path class="a" d="M1051.9,12.6a67.3,67.3,0,1,1-67.3,67.3,67.286,67.286,0,0,1,67.3-67.3Zm0,0" transform="translate(-984.6 -12.6)"/><path class="b" d="M1022.865,84.6h65.664l14.888,44.407H1098l-.172,15.663h5.594v2.582H1014.69c-8.434-.43-7.659-10.5-8.09-13.253l7.487-45.1c0-1.979,3.1-4.3,8.778-4.3Zm0,0" transform="translate(-987.667 -22.637)"/><path class="c" d="M1022.857,84.6h6.282l-5.68,62.738h-8.778c-8.434-.43-8.262-9.725-8.09-13.253l7.487-45.1c0-2.065,3.1-4.389,8.778-4.389Zm0,0" transform="translate(-987.659 -22.637)"/><path class="d" d="M1016.2,136.2h85.888c-3.873,5.336-3.787,10.671,0,15.921H1016.2c-4.647,0-6.8-3.615-6.8-7.917-.086-4.475,2.152-8,6.8-8Zm0,0" transform="translate(-988.057 -29.83)"/><path class="e" d="M1047.6,145.6h13.425v20.138l-6.8-6.541-6.627,6.541Zm0,0" transform="translate(-993.382 -31.14)"/><path class="f" d="M1069.027,30.3c-5.594,2.151-8.262,11.532-6.885,17.3l1.721-.258c-.947-6.8,3.27-12.651,8.52-15.577Zm0,0" transform="translate(-995.36 -15.067)"/><path class="g" d="M1060.124,39.017c-1.119-10.155-12.995-13.253-20.224-12.823,3.27,6.541,9.553,18.245,20.224,12.823Zm0,0" transform="translate(-992.309 -14.49)"/><path class="h" d="M1039.8,26.1c3.356,6.541,9.553,18.245,20.224,12.823C1049.181,27.649,1039.8,26.1,1039.8,26.1Zm0,0" transform="translate(-992.295 -14.482)"/><path class="i" d="M1057.835,98.464c-16.093,6.971-22.117-8.434-27.8-21.515-9.036-21.085,4.217-36.92,27.8-27.969,23.58-9.036,36.834,6.8,27.8,27.969-5.594,13.081-11.7,28.486-27.8,21.515Zm0,0" transform="translate(-990.536 -17.31)"/><path class="f" d="M1059.984,99.261c-7.745,3.356-13.253,1.463-17.384-2.84,4.561,3.7,10.5,4.905,17.814,1.721,13.684,5.938,19.622-5.594,24.441-16.782,3.787-8.606,8.176-17.556.861-29.26,5.422,5.422,6.627,14.8,1.979,25.646-5.508,13.081-11.618,28.486-27.711,21.515Zm0,0" transform="translate(-992.685 -18.106)"/></g></svg>