<svg xmlns="http://www.w3.org/2000/svg" viewBox="1344.701 3109 129.404 129.404"><defs><style>.a{fill:#bc40f2;}.b{fill:#fff;}.c{fill:#ff8300;}.d{fill:#c8cacc;}.e{fill:#10ca02;}.f{fill:#4b7de3;}.g{fill:#15bdb1;}.h{fill:#ec4b53;}.i{fill:#666;}.j{fill:#9d2aff;}.k{fill:#fffc00;}.l{fill:#e01919;}</style></defs><g transform="translate(1344.701 3109)"><path class="a" d="M1236.3,133a64.7,64.7,0,1,0-64.7-64.7,64.811,64.811,0,0,0,64.7,64.7Zm0,0" transform="translate(-1171.6 -3.6)"/><path class="b" d="M1213.9,29.4h69.965v78.737l-14.456,14.456H1213.9Zm0,0" transform="translate(-1184.216 -11.295)"/><path class="c" d="M1293,141.6h14.456L1293,156.056Zm0,0" transform="translate(-1207.807 -44.758)"/><path class="d" d="M1226.3,69h51.018v.772H1226.3Zm0,43.649h23.369v.772H1226.3Zm0-4.07h51.018v.772H1226.3Zm0-4.912h51.018v.772H1226.3Zm0-4.982h51.018v.772H1226.3Zm0-4.912h51.018v.772H1226.3Zm0-4.982h51.018v.772H1226.3Zm0-4.912h51.018v.772H1226.3Zm0-4.982h51.018v.772H1226.3Zm0-4.912h51.018v.772H1226.3Zm0,0" transform="translate(-1187.914 -23.105)"/><path class="e" d="M1237.269,55.765c-.14,0-.351,0-.421-.07a1.23,1.23,0,0,1-.351-.281,1.534,1.534,0,0,1-.211-.351.89.89,0,0,1-.07-.421,1.37,1.37,0,0,1,.07-.491,2.932,2.932,0,0,1,.281-.7,4.285,4.285,0,0,1,.351-.842c.14-.281.21-.561.351-.842a3.42,3.42,0,0,0,.281-.772,4.812,4.812,0,0,1,.211-.561,2.168,2.168,0,0,1,.14-.561c.07-.211.07-.421.14-.7.07-.211.14-.491.21-.772l.211-.842c-.14,0-.281.07-.421.07s-.351.07-.561.07a2.523,2.523,0,0,0-.772.14c-.281.07-.562.07-.842.14l-.842.211c-.281.07-.632.14-.912.211-.491.14-.983.211-1.474.351a5.473,5.473,0,0,1-1.544.211,1.785,1.785,0,0,1-.491-.14,3.405,3.405,0,0,0-.491-.211c-.14.281-.351.561-.491.842s-.281.632-.421.912-.211.632-.351.912c-.07.281-.211.632-.281.842a1.368,1.368,0,0,0-.07.561c0,.211-.07.491-.07.7s-.07.491-.07.7-.07.421-.07.561-.07.211-.14.351a1.232,1.232,0,0,1-.281.351c-.14.07-.211.211-.351.211a.89.89,0,0,1-.421.07.8.8,0,0,1-.562-.211,1.26,1.26,0,0,1-.351-.491l-.211-.632c0-.211-.07-.421-.07-.632a5.839,5.839,0,0,1,.211-1.544,14.166,14.166,0,0,1,.491-1.614,17.942,17.942,0,0,1,.772-1.684c.281-.561.562-1.123.912-1.684.281-.491.632-1.053.983-1.754.421-.632.842-1.333,1.333-2.035a22.783,22.783,0,0,1,1.614-2.035,14.272,14.272,0,0,1,1.825-1.754,14.805,14.805,0,0,1,1.895-1.263,4.077,4.077,0,0,1,1.965-.491,3.163,3.163,0,0,1,2.807,1.333,3.4,3.4,0,0,1,.561,1.474,7.124,7.124,0,0,1,.14,1.754,13.542,13.542,0,0,1-.07,1.684,14.024,14.024,0,0,1-.281,1.684,10.9,10.9,0,0,1-.351,1.614c-.14.491-.211.982-.351,1.4l-.421,1.684c0,.07-.07.14-.07.281-.07.14-.07.351-.14.561s-.14.421-.211.7a2.922,2.922,0,0,1-.281.7,2.492,2.492,0,0,1-.281.632,3.435,3.435,0,0,1-.211.491h0l-.211.632a2.493,2.493,0,0,1-.281.632,1.19,1.19,0,0,1-.421.421c0,.281-.281.281-.562.281ZM1237.9,40.4a3.18,3.18,0,0,0-1.123.211,4.2,4.2,0,0,0-1.053.632,11.055,11.055,0,0,0-1.052.842,11.654,11.654,0,0,0-.912.982l-.842,1.053c-.281.351-.491.7-.7.982,0,.07-.07.14-.14.211a.364.364,0,0,0-.14.281c-.07.07-.07.211-.14.281s-.07.211-.14.281h1.263a11.9,11.9,0,0,0,1.544-.07c.561-.07,1.193-.14,1.754-.211s1.123-.211,1.614-.281a11,11,0,0,0,1.123-.211c0-.07.07-.281.07-.421,0-.211.07-.351.07-.632,0-.211.07-.491.07-.7V42.151a2.522,2.522,0,0,0-.14-.772,2.844,2.844,0,0,0-.351-.632.823.823,0,0,0-.772-.351Zm12.351,7.3a25.094,25.094,0,0,0-.7,4.351.658.658,0,0,1-.421.561,1.943,1.943,0,0,1-.912.211.958.958,0,0,1-.772-.281.684.684,0,0,1-.281-.632,18.222,18.222,0,0,1,.7-4.211c-1.193,0-2.175.07-3.018.14a6.671,6.671,0,0,1-.982.07c-.491,0-.7-.421-.7-1.263,0-.351.211-.561.7-.772a19.967,19.967,0,0,1,4.561-.351,41.96,41.96,0,0,1,1.544-4.7,1.062,1.062,0,0,1,.983-.491c.7,0,.983.14.983.491a2.549,2.549,0,0,1-.211.772c-.14.351-.491,1.614-1.053,3.86,1.544-.07,2.807-.07,3.86-.07a.888.888,0,0,1,.982.982c0,.772-.491,1.123-1.4,1.123-1.123.14-2.386.14-3.86.211Zm0,0" transform="translate(-1187.795 -13.8)"/><path class="f" d="M1286.5,58.207l4.491,3.509,30.526-38.807-4.491-3.509Zm0,0" transform="translate(-1205.869 -8.312)"/><path class="g" d="M1315.991,45.9l.912-1.123-4.491-3.579-.912,1.123Zm0,0" transform="translate(-1213.325 -14.814)"/><path class="c" d="M1284.385,82.279l5.474-4.07-4.491-3.509-2.667,6.246Zm0,0" transform="translate(-1204.735 -24.805)"/><path class="h" d="M1284.951,83.442l5.474-4.07-.982-.772-4.842,4.561Zm0,0" transform="translate(-1205.302 -25.968)"/><path class="c" d="M1328.432,14.857l2.667,2.105a1.756,1.756,0,0,1,.211,2.456l-14.176,18.035-5.333-4.14,14.175-18.035a1.742,1.742,0,0,1,2.456-.421Zm0,0" transform="translate(-1213.414 -6.857)"/><path class="h" d="M1332.876,20.105l-1.825,2.316-4.561,5.754-7.79,9.965.07.07.421.351,7.579-9.684,6.6-8.351a1.7,1.7,0,0,0-.211-2.456l-.14-.07a1.706,1.706,0,0,1-.14,2.105Zm0,0" transform="translate(-1215.472 -7.895)"/><path class="i" d="M1279.6,87.881l.21.14,3.649-3.088-1.684-1.333Zm0,0" transform="translate(-1203.811 -27.46)"/><path class="b" d="M1327.664,19l6.176,4.912c.211.211.211.421.07.561l-8.281,10.456-.21.14-1.053.351c-.491.14-.842-.491-.211-.772l.912-.351,7.86-10.035-5.825-4.632Zm0,0" transform="translate(-1216.997 -8.193)"/><path class="j" d="M1292.3,69.816l.351.281,17.544-22.316-.351-.281Zm0,0" transform="translate(-1207.598 -16.693)"/><path class="k" d="M1230.2,160h7.3v19.018l-3.649-2.877-3.649,2.877Zm0,0" transform="translate(-1189.077 -50.246)"/><path class="l" d="M1234.094,138.5l.14.07a1.665,1.665,0,0,1,1.614-.842,1.613,1.613,0,0,1,1.474,1.825,1.471,1.471,0,0,1-.281.772l.14.14a1.585,1.585,0,0,1,1.824-.14,1.711,1.711,0,0,1,.631,2.246,1.435,1.435,0,0,1-.561.561.245.245,0,0,0,.07.14,1.721,1.721,0,0,1,1.755.632,1.668,1.668,0,0,1-.351,2.316,1.471,1.471,0,0,1-.772.281v.211a1.75,1.75,0,0,1,1.333,1.263,1.622,1.622,0,0,1-1.263,1.965,1.173,1.173,0,0,1-.842-.07l-.07.14a1.668,1.668,0,0,1,.7,1.754,1.622,1.622,0,0,1-1.965,1.263,2.593,2.593,0,0,1-.772-.351l-.14.14a1.585,1.585,0,0,1-.07,1.825,1.616,1.616,0,0,1-2.316.351,2.423,2.423,0,0,1-.561-.632c-.07,0-.14,0-.14.07a1.71,1.71,0,0,1-.842,1.684,1.574,1.574,0,0,1-2.245-.632,1.868,1.868,0,0,1-.211-.842h-.14a1.649,1.649,0,0,1-3.228-.281,1.78,1.78,0,0,1,.14-.842c-.07,0-.07-.07-.14-.07a1.648,1.648,0,0,1-1.754.491,1.676,1.676,0,0,1-1.053-2.105,2.338,2.338,0,0,1,.421-.7c0-.07-.07-.07-.07-.14a1.613,1.613,0,0,1-1.825-.281,1.676,1.676,0,0,1-.14-2.386,2.522,2.522,0,0,1,.7-.491v-.14a1.682,1.682,0,0,1-1.544-.982,1.648,1.648,0,0,1,.842-2.175,1.78,1.78,0,0,1,.842-.14l.07-.14a1.675,1.675,0,0,1-1.053-1.544,1.708,1.708,0,0,1,1.684-1.684,1.868,1.868,0,0,1,.842.211l.14-.14a1.742,1.742,0,0,1-.351-1.825,1.648,1.648,0,0,1,2.175-.842,1.528,1.528,0,0,1,.632.491c.07,0,.07-.07.14-.07a1.768,1.768,0,0,1,.421-1.825,1.74,1.74,0,0,1,2.807.912h.21a1.762,1.762,0,0,1,1.123-1.474,1.707,1.707,0,0,1,2.105,1.053,2.115,2.115,0,0,0-.281.982Zm0,0" transform="translate(-1186.515 -43.203)"/><path class="b" d="M1232.149,155.2a7.649,7.649,0,1,0-7.649-7.649,7.578,7.578,0,0,0,7.649,7.649Zm0,0" transform="translate(-1187.377 -44.251)"/><path class="k" d="M1232.507,154.714a6.807,6.807,0,1,0-6.807-6.807,6.859,6.859,0,0,0,6.807,6.807Zm0,0" transform="translate(-1187.735 -44.609)"/><path class="c" d="M1233.283,143.5l1.123,3.719h3.719l-3.018,2.316,1.123,3.719-3.018-2.316-3.018,2.316,1.123-3.719-3.018-2.316h3.719Zm0,0" transform="translate(-1188.511 -45.324)"/></g></svg>