<svg xmlns="http://www.w3.org/2000/svg" viewBox="745 2621 130 130"><defs><style>.a{fill:#bc40f2;}.b{fill:#282828;}.c{fill:#666;}.d{fill:#fff;}.e{fill:#ecf0f1;}.f{fill:#e01919;}.g{fill:#dfe1e3;}.h{fill:#10ca02;}.i{fill:#fffc00;}.j{fill:#ff8300;}.k{fill:#3f77eb;}.l{fill:#fed198;}.m{fill:#f0b97d;}.n{fill:#ffdeb0;}</style></defs><g transform="translate(745 2621)"><path class="a" d="M821,529a65,65,0,1,1-65,65,64.957,64.957,0,0,1,65-65Zm0,0" transform="translate(-756 -529)"/><path class="b" d="M761.1,683.7H883.956v4.2a4.215,4.215,0,0,1-4.2,4.2H765.3a4.215,4.215,0,0,1-4.2-4.2Zm0,0" transform="translate(-757.528 -575.343)"/><path class="c" d="M824.8,683.7h33.691v1.261a1.256,1.256,0,0,1-1.261,1.261H826.061a1.256,1.256,0,0,1-1.261-1.261Zm0,0" transform="translate(-776.61 -575.343)"/><path class="b" d="M777.071,588.6h99.181a2.182,2.182,0,0,1,2.171,2.171V651.5a2.182,2.182,0,0,1-2.171,2.171H777.071A2.182,2.182,0,0,1,774.9,651.5V590.771a2.182,2.182,0,0,1,2.171-2.171Zm0,0" transform="translate(-761.662 -546.854)"/><rect class="d" width="94.348" height="57.505" transform="translate(17.861 46.158)"/><path class="c" d="M793.7,681.6h6.864V683H793.7Zm70.323,0h6.864V683h-6.864Zm0,0" transform="translate(-767.294 -574.714)"/><path class="e" d="M800.179,597.5a14.827,14.827,0,1,1-10.437,4.343,14.776,14.776,0,0,1,10.437-4.343Zm10.646,22.974a16.135,16.135,0,0,0-3.5-1.051c-.14.28-.28.49-.42.771a16.124,16.124,0,0,1-4.693,5.323,13.289,13.289,0,0,0,7.424-3.782c.42-.42.841-.84,1.191-1.261Zm-12.678,5.043a16.124,16.124,0,0,1-4.693-5.323c-.14-.28-.28-.49-.42-.77a18.954,18.954,0,0,0-3.5,1.051,9.623,9.623,0,0,0,1.121,1.261,14.462,14.462,0,0,0,7.495,3.782Zm-9.316-6.234a15.419,15.419,0,0,1,3.712-1.191,15.779,15.779,0,0,1-.981-5.113h-4.693a12.383,12.383,0,0,0,1.961,6.3Zm-1.961-7.7h4.693a16.655,16.655,0,0,1,1.191-5.533,14.924,14.924,0,0,1-3.642-1.121,12.813,12.813,0,0,0-2.241,6.654Zm3.012-7.845a16.925,16.925,0,0,0,3.432.981l.21-.42a16.486,16.486,0,0,1,4.623-5.253,13.288,13.288,0,0,0-7.425,3.782c-.28.28-.56.63-.84.911Zm12.4-4.693a15.778,15.778,0,0,1,4.623,5.253l.21.42a18.36,18.36,0,0,0,3.432-.981c-.28-.35-.56-.63-.84-.981a14.405,14.405,0,0,0-7.425-3.712Zm9.106,5.884a14.914,14.914,0,0,1-3.642,1.121,18.608,18.608,0,0,1,1.191,5.533h4.693a14.206,14.206,0,0,0-2.241-6.654Zm2.171,8.055h-4.693a18.354,18.354,0,0,1-.981,5.113,14.46,14.46,0,0,1,3.712,1.191,13.889,13.889,0,0,0,1.961-6.3ZM800.88,599.811v5.463a35.446,35.446,0,0,0,4.763-.35h0a14.345,14.345,0,0,0-4.763-5.113Zm0,6.934v4.833h6.584a15.1,15.1,0,0,0-1.191-5.253c-1.681.21-3.5.35-5.393.42Zm0,6.234v4.343a46.669,46.669,0,0,1,5.533.42,16.042,16.042,0,0,0,.981-4.833H800.88Zm0,5.814v5.954a14.589,14.589,0,0,0,4.763-5.183c.07-.14.14-.21.21-.35a28,28,0,0,0-4.973-.42Zm-1.4,5.884v-5.954a37.783,37.783,0,0,0-4.973.35c.07.14.14.21.21.35a14.281,14.281,0,0,0,4.763,5.253Zm0-7.354v-4.343h-6.514a16.489,16.489,0,0,0,.981,4.833,46.429,46.429,0,0,1,5.533-.49Zm0-5.744v-4.833a33.662,33.662,0,0,1-5.393-.42,15.464,15.464,0,0,0-1.191,5.253Zm0-6.234v-5.463a14.4,14.4,0,0,0-4.763,5.113h0c1.541.21,3.152.28,4.763.35Zm0,0" transform="translate(-764.807 -549.52)"/><path class="f" d="M787.811,639h41.465v1.541a6.927,6.927,0,0,0,0,8.2v1.541H787.811c-6.514,0-6.514-11.277,0-11.277Zm0,0" transform="translate(-764.066 -561.953)"/><path class="d" d="M829.838,649.4a7.049,7.049,0,0,1,0-8.2H788.372a3.873,3.873,0,0,0-3.572,4.133c0,2.241,1.611,4.133,3.572,4.133h41.466Zm0,0" transform="translate(-764.628 -562.612)"/><path class="g" d="M829.505,641.83l.42-.63H788.46c-3.992,0-5.113,6.3-1.051,7.985-2.732-1.471-1.681-6.514,1.191-7.355Zm0,0" transform="translate(-764.646 -562.612)"/><path class="g" d="M829.067,643.08H785.641a.547.547,0,0,1,.28-.28h43.287a.531.531,0,0,0-.14.28Zm-43.777.63c-.07.07-.07.21-.14.28h43.567c0-.07.07-.21.07-.28Zm-.35.841c0,.07-.07.21-.07.28h43.637a.421.421,0,0,1,.07-.28Zm-.14.911v.28h43.707v-.28Zm.07.911a.421.421,0,0,0,.07.28h43.637a.421.421,0,0,0-.07-.28Zm.21.911c.07.07.07.21.14.28h43.567c0-.07-.07-.21-.07-.28Zm.42.841a.966.966,0,0,0,.21.28h43.357c-.07-.07-.07-.21-.14-.28Zm.77.911a1.468,1.468,0,0,0,.42.28h42.866a.531.531,0,0,1-.14-.28Zm0,0" transform="translate(-764.628 -563.091)"/><path class="h" d="M836.661,655.1H785.6v2.1a10.182,10.182,0,0,1,0,11.137v2.1h51.061c7.985,0,7.985-15.339,0-15.339Zm0,0" transform="translate(-764.867 -566.776)"/><path class="d" d="M785.6,669.237c2.031-3.712,2.241-7.425,0-11.137h51.061c2.382,0,4.343,2.521,4.343,5.533,0,3.082-1.961,5.534-4.343,5.534H785.6Zm0,0" transform="translate(-764.867 -567.674)"/><path class="g" d="M786.09,659.011a5.784,5.784,0,0,0-.49-.911h51.061c4.9,0,6.234,8.545,1.331,10.857,3.362-2.031,2.1-8.825-1.4-9.946Zm0,0" transform="translate(-764.867 -567.674)"/><path class="g" d="M786.83,660.72H840.2c-.07-.14-.21-.28-.28-.42H786.69a1,1,0,0,0,.14.42Zm53.793.77.21.42H787.251a1,1,0,0,0-.14-.42Zm.42,1.261c0,.14.07.28.07.42H787.391c0-.14-.07-.28-.07-.42Zm.14,1.191v.42H787.461v-.42Zm0,1.191c0,.14-.07.28-.07.42H787.391a.888.888,0,0,1,.07-.42Zm-.28,1.191c-.07.14-.07.28-.14.42H787.181a.888.888,0,0,0,.07-.42Zm-.49,1.261a1.467,1.467,0,0,1-.28.42H786.76c.07-.14.07-.28.14-.42Zm-.981,1.191c-.14.14-.35.28-.49.42H786.2l.21-.42Zm0,0" transform="translate(-765.047 -568.333)"/><path class="i" d="M828.419,625H797.6v1.331a6.759,6.759,0,0,1,0,7.074v1.331h30.819c4.833.07,4.833-9.736,0-9.736Zm0,0" transform="translate(-768.462 -557.759)"/><path class="d" d="M797.5,633.974a6.923,6.923,0,0,0,0-7.074h30.819c1.471,0,2.662,1.611,2.662,3.5,0,1.961-1.191,3.572-2.662,3.572Zm0,0" transform="translate(-768.432 -558.328)"/><path class="g" d="M797.88,627.56c-.07-.21-.21-.35-.28-.56h30.819c2.942,0,3.782,5.463.771,6.934,2.031-1.261,1.261-5.6-.841-6.3H797.88Zm0,0" transform="translate(-768.462 -558.358)"/><path class="g" d="M798.25,628.58h32.22c-.07-.07-.14-.21-.21-.28H798.11c.07.14.14.21.14.28Zm32.5.49c.07.07.07.21.14.28H798.53c0-.07-.07-.21-.07-.28Zm.28.77c0,.07.07.21.07.28H798.67a.421.421,0,0,0-.07-.28Zm.07.77v.28H798.67v-.28Zm0,.771a.421.421,0,0,1-.07.28H798.6v-.28Zm-.14.77c0,.07-.07.21-.07.28H798.53c0-.07.07-.21.07-.28Zm-.35.771c-.07.07-.07.21-.14.28H798.25c0-.07.07-.21.07-.28Zm-.56.77-.28.28H797.9c.07-.07.07-.21.14-.28Zm0,0" transform="translate(-768.552 -558.747)"/><path class="j" d="M884.421,566H850.8v49.24h33.621a5.143,5.143,0,0,0,5.043-5.183V571.113A5.082,5.082,0,0,0,884.421,566Zm0,0" transform="translate(-784.399 -540.084)"/><path class="d" d="M883.02,563.6H850.8v49.24h32.22a4.9,4.9,0,0,0,4.833-4.9V568.573a4.919,4.919,0,0,0-4.833-4.973Zm0,0" transform="translate(-784.399 -539.365)"/><path class="k" d="M884.421,557H850.8v49.24h38.664V562.113A5.127,5.127,0,0,0,884.421,557Zm0,0" transform="translate(-784.399 -537.388)"/><path class="j" d="M899.9,606.24h4.273V562.113A5.134,5.134,0,0,0,899.9,557Zm0,0" transform="translate(-799.108 -537.388)"/><path class="g" d="M885.892,631.242H850.8v.42h34.461a2.441,2.441,0,0,0,.63-.42ZM850.87,628.3v.42h36.773a.889.889,0,0,0,.07-.42Zm0,.981v.42h36.422l.21-.42Zm0,.981v.42h35.722c.14-.14.21-.28.35-.42Zm0,0" transform="translate(-784.399 -558.747)"/><path class="d" d="M881.908,616.1H869.3v.77h12.608Zm-2.452,1.331h-7.775v.77h7.775Zm0,0" transform="translate(-789.941 -555.092)"/><path class="l" d="M902.048,600.531,897.5,599.2l-6.584,1.471c-.35.84.7,1.751,1.611,1.821l5.043-.42,3.5,1.471v.49l-5.253-1.261-6.514,1.891c.07,2.662,1.821,1.961,6.094.911l5.6,1.961v.7l-4.273-.911-5.393,1.331c-.07,2.662,1.891,1.821,5.393,1.471l4.273.981v1.051l-4.273-.28-4.133,1.191c-.63.28-.49,1.541.42,1.821l3.712-.42,4.2.56.07,4.133a5.261,5.261,0,0,1-3.852,5.884l-3.782.21-1.121,6.724h9.246l-.63-8.2c1.4-3.222,4.2-7.495,2.521-11.137a2.976,2.976,0,0,0-.14-3.642c.63-.911,1.471-2.521.07-3.712,0-2.521.7-3.362-1.261-4.763Zm0,0" transform="translate(-795.933 -550.03)"/><path class="m" d="M894.721,636.24l-1.121,6.724,3.572-6.864Zm0,0" transform="translate(-797.221 -561.084)"/><path class="j" d="M902.859,645.9l1.751,21.783H887.8l2.452-21.783Zm0,0" transform="translate(-795.483 -564.02)"/><rect class="e" width="11.277" height="1.611" transform="translate(95.539 80.339)"/><path class="e" d="M907.071,647.9a.771.771,0,1,1-.771.771.777.777,0,0,1,.771-.771Zm0,0" transform="translate(-801.025 -564.619)"/><path class="e" d="M907.367,650.8a.77.77,0,1,1-.771.77.7.7,0,0,1,.771-.77Zm0,0" transform="translate(-801.111 -565.488)"/><path class="d" d="M891.78,601.911l1.191-.35-.21-.56-1.261.21a1,1,0,0,0,.28.7Zm0,0" transform="translate(-796.592 -550.569)"/><path class="d" d="M889.85,607.971l1.541-.56-.35-.911-1.541.49a1.377,1.377,0,0,0,.35.981Zm0,0" transform="translate(-795.993 -552.217)"/><path class="d" d="M892.85,613.8l1.331-.42-.35-.981-1.331.28a1.782,1.782,0,0,0,.35,1.121Zm0,0" transform="translate(-796.891 -553.984)"/><path class="d" d="M894.107,619.08l.981-.28.28,1.191-1.121.28s-.7-.77-.14-1.191Zm0,0" transform="translate(-797.308 -555.901)"/><path class="n" d="M835.915,577.969H828.84L828.7,567.6l6.864.35c.49-.981,3.572-3.082,4.413-3.362l4.273-.49v2.171l7.214-.35,7.285,1.261c.42,0,.77,1.961-1.471,1.821l-5.814-.28-3.572.7h5.113l6.934,1.051c.77.14.35,2.1-1.681,2.171l-5.113-.49-5.183.56,5.323.28,5.533.841c.981.14.841,2.1-1.121,1.961l-4.553-.35-5.183.7,4.553.35,4.763,1.261c.35.07.49,1.751-2.1,1.471l-3.012-.35c-3.993.21-13.308,1.961-16.25-.91Zm0,0" transform="translate(-777.779 -539.515)"/><path class="m" d="M835.974,583.75H828.9v-.35l7.144.07c3.152,3.012,12.117,1.4,16.18,1.051a21.237,21.237,0,0,0,4.063.35c1.471-.21,1.121-1.261.981-1.331.35.07.49,1.751-2.1,1.471l-3.012-.35c-3.922.21-13.238,1.961-16.18-.911Zm0,0" transform="translate(-777.838 -545.297)"/><path class="b" d="M809.068,567.031l.14,12.117-45.808.07A64.438,64.438,0,0,1,771.805,565Zm0,0" transform="translate(-758.217 -539.784)"/><path class="d" d="M830.771,568.4l.21,11.347H828.81L828.6,568.4Zm0,0" transform="translate(-777.749 -540.803)"/><path class="e" d="M824.341,581.021a1.121,1.121,0,1,1-1.121-1.121,1.106,1.106,0,0,1,1.121,1.121Zm0,0" transform="translate(-775.801 -544.248)"/><path class="d" d="M869.54,568.3l1.331.14a.707.707,0,0,1,.07.63L869.4,569Zm0,0" transform="translate(-789.971 -540.773)"/><path class="d" d="M871.24,573l1.331.14a.707.707,0,0,1,.07.63l-1.541-.07Zm0,0" transform="translate(-790.48 -542.181)"/><path class="d" d="M869.74,577.8l1.331.14a.707.707,0,0,1,.07.63l-1.541-.07Zm0,0" transform="translate(-790.031 -543.619)"/><path class="d" d="M867.34,583.2l1.331.28a.848.848,0,0,1,.07.7l-1.541-.28Zm0,0" transform="translate(-789.312 -545.237)"/></g></svg>