<svg xmlns="http://www.w3.org/2000/svg" viewBox="744.356 2165 130.644 130.644"><defs><style>.a{fill:#4a6ef4;}.b{fill:#fff;}.c{fill:#ff8300;}.d{fill:#c8cacc;}.e{fill:#10ca02;}.f{fill:#9d2aff;}.g{fill:#15bdb1;}.h{fill:#ec4b53;}.i{fill:#666;}.j{fill:#fffc00;}.k{fill:#e01919;}</style></defs><g transform="translate(744.356 2165)"><path class="a" d="M1236.922,134.244A65.322,65.322,0,1,0,1171.6,68.922a65.432,65.432,0,0,0,65.322,65.322Zm0,0" transform="translate(-1171.6 -3.6)"/><path class="b" d="M1213.9,29.4h70.636v79.492l-14.595,14.595H1213.9Zm0,0" transform="translate(-1183.931 -11.121)"/><path class="c" d="M1293,141.6h14.595L1293,156.195Zm0,0" transform="translate(-1206.99 -43.829)"/><path class="d" d="M1226.3,69h51.507v.779H1226.3Zm0,44.068h23.593v.779H1226.3Zm0-4.109h51.507v.779H1226.3Zm0-4.959h51.507v.779H1226.3Zm0-5.03h51.507v.779H1226.3Zm0-4.959h51.507v.779H1226.3Zm0-5.03h51.507v.779H1226.3Zm0-4.959h51.507V84.8H1226.3Zm0-5.03h51.507v.779H1226.3Zm0-4.959h51.507v.779H1226.3Zm0,0" transform="translate(-1187.546 -22.665)"/><path class="e" d="M1237.378,55.937c-.142,0-.354,0-.425-.071a1.242,1.242,0,0,1-.354-.283,1.558,1.558,0,0,1-.212-.354.9.9,0,0,1-.071-.425,1.386,1.386,0,0,1,.071-.5,2.953,2.953,0,0,1,.283-.708,4.322,4.322,0,0,1,.354-.85c.142-.283.213-.567.354-.85a3.461,3.461,0,0,0,.283-.779,4.833,4.833,0,0,1,.213-.567,2.185,2.185,0,0,1,.141-.567c.071-.213.071-.425.142-.708.071-.213.142-.5.213-.779l.213-.85c-.142,0-.284.071-.425.071s-.354.071-.567.071a2.548,2.548,0,0,0-.78.142c-.283.071-.567.071-.85.142l-.85.213c-.283.071-.638.142-.921.213-.5.142-.992.213-1.488.354a5.524,5.524,0,0,1-1.558.213,1.8,1.8,0,0,1-.5-.142,3.442,3.442,0,0,0-.5-.213c-.142.283-.354.567-.5.85s-.283.638-.425.921-.213.638-.354.921c-.071.283-.213.638-.283.85a1.38,1.38,0,0,0-.071.567c0,.213-.071.5-.071.708s-.071.5-.071.708-.071.425-.071.567-.071.213-.141.354a1.243,1.243,0,0,1-.283.354c-.142.071-.213.213-.354.213a.9.9,0,0,1-.425.071.805.805,0,0,1-.567-.213,1.273,1.273,0,0,1-.354-.5l-.213-.638c0-.213-.071-.425-.071-.638a5.9,5.9,0,0,1,.213-1.559,14.313,14.313,0,0,1,.5-1.63,18.13,18.13,0,0,1,.779-1.7c.283-.567.567-1.134.921-1.7.284-.5.638-1.063.992-1.771.425-.638.85-1.346,1.346-2.055a23.013,23.013,0,0,1,1.63-2.055,14.412,14.412,0,0,1,1.842-1.771,14.957,14.957,0,0,1,1.913-1.275,4.117,4.117,0,0,1,1.984-.5,3.194,3.194,0,0,1,2.834,1.346,3.437,3.437,0,0,1,.567,1.488,7.192,7.192,0,0,1,.142,1.771,13.661,13.661,0,0,1-.071,1.7,14.148,14.148,0,0,1-.283,1.7,11.013,11.013,0,0,1-.354,1.63c-.142.5-.213.992-.354,1.417l-.425,1.7c0,.071-.071.142-.071.283-.071.142-.071.354-.142.567s-.142.425-.213.708a2.949,2.949,0,0,1-.284.708,2.513,2.513,0,0,1-.283.638,3.453,3.453,0,0,1-.213.5h0l-.213.638a2.514,2.514,0,0,1-.283.638,1.2,1.2,0,0,1-.425.425c0,.283-.284.283-.567.283Zm.637-15.516a3.209,3.209,0,0,0-1.134.213,4.226,4.226,0,0,0-1.063.638,11.148,11.148,0,0,0-1.063.85,11.733,11.733,0,0,0-.921.992l-.85,1.063c-.284.354-.5.708-.708.992,0,.071-.071.142-.142.213a.368.368,0,0,0-.141.283c-.071.071-.071.213-.142.283s-.071.213-.142.283h1.275a12.009,12.009,0,0,0,1.559-.071c.567-.071,1.2-.142,1.771-.213s1.134-.213,1.63-.283a11.109,11.109,0,0,0,1.134-.213c0-.071.071-.283.071-.425,0-.213.071-.354.071-.638,0-.213.071-.5.071-.708V42.193a2.545,2.545,0,0,0-.142-.779,2.873,2.873,0,0,0-.354-.638.831.831,0,0,0-.78-.354Zm12.469,7.368a25.351,25.351,0,0,0-.708,4.393.664.664,0,0,1-.425.567,1.962,1.962,0,0,1-.921.213.968.968,0,0,1-.779-.283.69.69,0,0,1-.283-.638,18.407,18.407,0,0,1,.708-4.251c-1.2,0-2.2.071-3.046.142a6.736,6.736,0,0,1-.992.071c-.5,0-.708-.425-.708-1.275,0-.354.212-.567.708-.779a20.159,20.159,0,0,1,4.6-.354,42.394,42.394,0,0,1,1.559-4.747,1.072,1.072,0,0,1,.992-.5c.709,0,.992.142.992.5a2.568,2.568,0,0,1-.213.779c-.142.354-.5,1.63-1.063,3.9,1.559-.071,2.834-.071,3.9-.071a.9.9,0,0,1,.992.992c0,.779-.5,1.134-1.417,1.134-1.133.142-2.409.142-3.9.213Zm0,0" transform="translate(-1187.43 -13.57)"/><path class="f" d="M1286.5,58.579l4.534,3.542,30.819-39.179-4.534-3.542Zm0,0" transform="translate(-1205.095 -8.206)"/><path class="g" d="M1316.035,45.947l.921-1.134-4.534-3.613-.921,1.134Zm0,0" transform="translate(-1212.384 -14.561)"/><path class="c" d="M1284.4,82.352l5.526-4.109-4.534-3.542-2.692,6.305Zm0,0" transform="translate(-1203.988 -24.327)"/><path class="h" d="M1284.954,83.489l5.526-4.109-.992-.779-4.889,4.605Zm0,0" transform="translate(-1204.542 -25.464)"/><path class="c" d="M1328.591,14.86l2.692,2.125a1.773,1.773,0,0,1,.213,2.48l-14.311,18.208-5.385-4.18,14.312-18.208a1.759,1.759,0,0,1,2.479-.425Zm0,0" transform="translate(-1212.47 -6.783)"/><path class="h" d="M1333.011,20.125l-1.842,2.338-4.6,5.81-7.864,10.06.071.071.425.354,7.652-9.777,6.66-8.431a1.711,1.711,0,0,0-.213-2.48l-.142-.071a1.722,1.722,0,0,1-.142,2.125Zm0,0" transform="translate(-1214.482 -7.798)"/><path class="i" d="M1279.6,87.922l.213.142,3.684-3.117-1.7-1.346Zm0,0" transform="translate(-1203.084 -26.921)"/><path class="b" d="M1327.7,19l6.235,4.959c.213.213.213.425.071.567l-8.36,10.556-.212.142-1.063.354c-.5.142-.85-.5-.213-.779l.921-.354,7.935-10.131-5.88-4.676Zm0,0" transform="translate(-1215.973 -8.089)"/><path class="f" d="M1292.3,70.03l.354.283,17.712-22.53-.354-.283Zm0,0" transform="translate(-1206.786 -16.398)"/><path class="j" d="M1230.2,160h7.368v19.2l-3.684-2.9-3.684,2.9Zm0,0" transform="translate(-1188.683 -49.193)"/><path class="k" d="M1234.213,138.522l.142.071a1.681,1.681,0,0,1,1.63-.85,1.628,1.628,0,0,1,1.488,1.842,1.486,1.486,0,0,1-.283.779l.142.142a1.6,1.6,0,0,1,1.842-.142,1.727,1.727,0,0,1,.638,2.267,1.451,1.451,0,0,1-.567.567.247.247,0,0,0,.071.142,1.737,1.737,0,0,1,1.771.638,1.684,1.684,0,0,1-.354,2.338,1.486,1.486,0,0,1-.779.283v.213a1.766,1.766,0,0,1,1.346,1.275,1.637,1.637,0,0,1-1.275,1.984,1.185,1.185,0,0,1-.85-.071l-.071.142a1.684,1.684,0,0,1,.709,1.771,1.638,1.638,0,0,1-1.984,1.275,2.62,2.62,0,0,1-.779-.354l-.142.142a1.6,1.6,0,0,1-.071,1.842,1.631,1.631,0,0,1-2.338.354,2.442,2.442,0,0,1-.567-.638c-.071,0-.142,0-.142.071a1.726,1.726,0,0,1-.85,1.7,1.589,1.589,0,0,1-2.267-.638,1.885,1.885,0,0,1-.213-.85h-.141a1.665,1.665,0,0,1-3.259-.283,1.794,1.794,0,0,1,.142-.85c-.071,0-.071-.071-.142-.071a1.663,1.663,0,0,1-1.771.5,1.692,1.692,0,0,1-1.063-2.125,2.364,2.364,0,0,1,.425-.708c0-.071-.071-.071-.071-.142a1.628,1.628,0,0,1-1.842-.283,1.693,1.693,0,0,1-.142-2.409,2.546,2.546,0,0,1,.709-.5V147.8a1.7,1.7,0,0,1-1.559-.992,1.664,1.664,0,0,1,.85-2.2,1.8,1.8,0,0,1,.85-.142l.071-.142a1.691,1.691,0,0,1-1.063-1.559,1.724,1.724,0,0,1,1.7-1.7,1.886,1.886,0,0,1,.85.213l.142-.142a1.76,1.76,0,0,1-.354-1.842,1.664,1.664,0,0,1,2.2-.85,1.542,1.542,0,0,1,.638.5c.071,0,.071-.071.142-.071a1.785,1.785,0,0,1,.425-1.842,1.757,1.757,0,0,1,2.834.921h.213a1.779,1.779,0,0,1,1.134-1.488,1.723,1.723,0,0,1,2.125,1.063,2.133,2.133,0,0,0-.283.992Zm0,0" transform="translate(-1186.178 -42.31)"/><path class="b" d="M1232.222,155.345a7.722,7.722,0,1,0-7.723-7.722,7.651,7.651,0,0,0,7.723,7.722Zm0,0" transform="translate(-1187.021 -43.334)"/><path class="j" d="M1232.572,154.845a6.872,6.872,0,1,0-6.872-6.872,6.925,6.925,0,0,0,6.872,6.872Zm0,0" transform="translate(-1187.371 -43.684)"/><path class="c" d="M1233.33,143.5l1.134,3.755h3.755l-3.047,2.338,1.134,3.755-3.046-2.338-3.046,2.338,1.134-3.755-3.047-2.338h3.755Zm0,0" transform="translate(-1188.129 -44.383)"/></g></svg>