<svg xmlns="http://www.w3.org/2000/svg" viewBox="1048 2621 130 130"><defs><style>.a{fill:#bc40f2;}.b{fill:#0b32af;}.c{fill:#457ae7;}.d{fill:#f9b54c;}.e{fill:#ff8300;}.f{fill:#e6e9ee;}.g{fill:#324a5e;}.h{fill:#ffd05b;}.i{fill:#fffc00;}.j{fill:#fff;}</style></defs><g transform="translate(-2374.778 -2367.181)"><circle class="a" cx="65" cy="65" r="65" transform="translate(3422.778 4988.181)"/><path class="b" d="M1176.2,319.4a65.05,65.05,0,0,0,108.711,0Z" transform="translate(2257.222 4769.466)"/><rect class="c" width="93.966" height="3.577" transform="translate(3440.751 5085.202)"/><ellipse class="d" cx="5.322" cy="9.248" rx="5.322" ry="9.248" transform="translate(3466.403 5039.309)"/><path class="e" d="M1236.062,304.164a41.683,41.683,0,0,0,1.4-10.732c0-14.57-9.074-18.933-20.329-18.933s-20.329,4.362-20.329,18.933a47.073,47.073,0,0,0,1.4,10.732Z" transform="translate(2254.595 4775.191)"/><g transform="translate(3464.657 5048.034)"><path class="f" d="M1225.335,272.6s-3.054,1.919-5.235,1.919l2.879,6.107,4.1-5.758Z" transform="translate(-1213.033 -272.6)"/><path class="f" d="M1213.745,272.6s3.054,1.919,5.235,1.919l-2.879,6.107-4.1-5.758Z" transform="translate(-1212 -272.6)"/></g><path class="g" d="M1232.765,241.289c0,8.638-6.631,20.678-14.832,20.678s-14.832-12.04-14.832-20.678,6.631-12.389,14.832-12.389S1232.765,232.652,1232.765,241.289Z" transform="translate(2253.792 4781.006)"/><path class="h" d="M1229.561,251.026c0,8.812-4.886,15.879-11.08,15.879-6.02,0-11.081-7.067-11.081-15.879,0-5.235,1.745-9.859,4.537-12.826a42.27,42.27,0,0,0,6.98,5.5,37.4,37.4,0,0,0,10.47,4.624C1229.386,249.193,1229.561,250.153,1229.561,251.026Z" transform="translate(2253.244 4779.82)"/><path class="i" d="M1272.566,301.471a26.56,26.56,0,0,0,.96-6.718c0-9.248-5.846-11.953-12.913-11.953-7.154,0-12.913,2.792-12.913,11.953a25.5,25.5,0,0,0,.96,6.718Z" transform="translate(2248.105 4774.133)"/><path class="d" d="M1265.876,281.912a4.188,4.188,0,0,1-8.376,0c0-2.268,1.832-8.812,4.188-8.812C1263.956,273.1,1265.876,279.644,1265.876,281.912Z" transform="translate(2246.856 4775.37)"/><circle class="g" cx="10.732" cy="10.732" r="10.732" transform="translate(3498.161 5033.201)"/><ellipse class="h" cx="8.812" cy="8.027" rx="8.812" ry="8.027" transform="translate(3500.08 5040.443)"/><g transform="translate(3501.738 5030.37)"><path class="g" d="M1268.809,268.809a4.746,4.746,0,0,1-2.356-4.624s-3.141-2.53-4.8-.96c-1.745-1.57-4.8.96-4.8.96a4.746,4.746,0,0,1-2.356,4.624s4.624-1.221,4.537-4.624c0,0,1.047,4.1-1.047,4.973a4.72,4.72,0,0,1,7.329,0c-1.919-.96-1.047-4.973-1.047-4.973C1264.1,267.675,1268.809,268.809,1268.809,268.809Z" transform="translate(-1254.5 -253.675)"/><path class="g" d="M1279.127,255.1a9.282,9.282,0,0,0-4.362.174,8.874,8.874,0,0,0-3.664,2.356c0-2.53,1.047-4.624,2.792-5.148C1275.55,251.958,1277.556,253.092,1279.127,255.1Z" transform="translate(-1256.617 -252.354)"/></g><path class="f" d="M1271.849,256.882c.436.349.174,1.134-.436,1.658a1.465,1.465,0,0,1-1.745.436c-.436-.349-.174-1.134.436-1.658S1271.5,256.621,1271.849,256.882Z" transform="translate(2245.332 4777.453)"/><path class="g" d="M1244.4,255.1a9.282,9.282,0,0,1,4.362.174,8.873,8.873,0,0,1,3.664,2.356c0-2.53-1.047-4.624-2.792-5.148C1247.977,251.958,1245.883,253.092,1244.4,255.1Z" transform="translate(2248.526 4778.015)"/><path class="f" d="M1252.469,256.882c-.436.349-.174,1.134.436,1.658a1.465,1.465,0,0,0,1.745.436c.436-.349.174-1.134-.436-1.658S1252.73,256.621,1252.469,256.882Z" transform="translate(2247.524 4777.453)"/><g transform="translate(3498.477 5044.921)"><ellipse class="h" cx="1.745" cy="1.309" rx="1.745" ry="1.309" transform="translate(16.545 3.021) rotate(-59.953)"/><ellipse class="h" cx="1.309" cy="1.745" rx="1.309" ry="1.745" transform="translate(0 1.387) rotate(-30.047)"/></g><path class="j" d="M1266.681,301.7h-28.966a5.322,5.322,0,1,1-10.644,0H1198.1l-7.5,11.779h83.5Z" transform="translate(2255.386 4771.723)"/></g></svg>