<svg xmlns="http://www.w3.org/2000/svg" viewBox="875 4216 168.396 165.854"><defs><style>.a{fill:#4a6ef4;}.b{fill:#fffc00;}.c{fill:#a43df2;}.d{fill:#6f13bf;}.e{fill:#f2f2f2;}.f{fill:#cccbca;}.g{fill:#d9d8d7;}.h{fill:#fff;}</style></defs><g transform="translate(875 4216)"><path class="a" d="M369.2,185.554c-46.388,0-84.2-37.174-84.2-82.927S322.81,19.7,369.2,19.7s84.2,37.174,84.2,82.927S415.586,185.554,369.2,185.554Z" transform="translate(-285 -19.7)"/><path class="b" d="M342.356,24c-6.513,0-11.756,5.243-11.756,12.709h5.719c0-4.289,2.7-6.99,6.037-6.99a6.172,6.172,0,0,1,6.2,6.037,6.384,6.384,0,0,1-3.5,5.56,10.793,10.793,0,0,0-5.878,8.738V52.6h6.355V50.054A3.218,3.218,0,0,1,347.44,46.4a11.7,11.7,0,0,0,5.4-15.728A11.526,11.526,0,0,0,342.356,24Z" transform="translate(-258.158 -17.169)"/><rect class="b" width="6.355" height="6.355" transform="translate(81.021 37.015)"/><path class="b" d="M317.359,38.059a7.25,7.25,0,0,0-3.495,9.691l3.177-1.43a3.9,3.9,0,0,1,1.747-5.084,3.794,3.794,0,0,1,5.4,3.018,3.424,3.424,0,0,1-.794,2.7,6.137,6.137,0,0,0-.794,6.355l.477,1.112,3.177-1.43-.635-1.271a2.4,2.4,0,0,1,.318-2.7,7.144,7.144,0,0,0-1.271-10.167,4.889,4.889,0,0,0-3.018-.953Z" transform="translate(-268.428 -8.987)"/><path class="b" d="M321.389,52.807l3.177-1.43L322.977,48.2,319.8,49.63Z" transform="translate(-264.515 -2.924)"/><path class="b" d="M363.791,38.064a7.25,7.25,0,0,0-9.691,3.5l3.177,1.43a3.628,3.628,0,0,1,4.925-1.748,3.764,3.764,0,0,1,1.748,4.925,3.858,3.858,0,0,1-3.336,2.224,5.914,5.914,0,0,0-5.242,3.5L354.894,53l3.177,1.43.477-1.112a2.69,2.69,0,0,1,2.224-1.43,7.4,7.4,0,0,0,7.149-7.467A6.951,6.951,0,0,0,363.791,38.064Z" transform="translate(-244.325 -9.309)"/><path class="b" d="M353.3,51.377l3.018,1.43,1.589-3.177L354.73,48.2Z" transform="translate(-244.796 -2.924)"/><rect class="c" width="147.744" height="79.432" transform="translate(11.12 59.256)"/><rect class="d" width="147.744" height="3.177" transform="translate(11.12 138.688)"/><path class="e" d="M361.546,134.432H298V55h56.556a7.052,7.052,0,0,1,6.99,6.99Z" transform="translate(-277.348 1.079)"/><path class="e" d="M401.546,134.432H338V61.99A7.052,7.052,0,0,1,344.99,55h56.556Z" transform="translate(-253.802 1.079)"/><path class="f" d="M362.012,102.906A7.1,7.1,0,0,0,357.087,101h-56.4l-6.99,6.355h70.377A5.911,5.911,0,0,0,362.012,102.906Z" transform="translate(-279.879 28.157)"/><path class="f" d="M340.065,102.906A6.834,6.834,0,0,1,344.99,101h56.4l6.99,6.355H338A5.911,5.911,0,0,1,340.065,102.906Z" transform="translate(-253.802 28.157)"/><path class="g" d="M300.355,55v72.124L294,134.114V61.99Z" transform="translate(-279.702 1.079)"/><path class="g" d="M378,55v72.124l6.355,6.99V61.99Z" transform="translate(-230.256 1.079)"/><rect class="f" width="42.893" height="1.589" transform="translate(27.007 64.022)"/><rect class="f" width="42.893" height="1.589" transform="translate(27.007 70.377)"/><rect class="f" width="42.893" height="1.589" transform="translate(27.007 75.143)"/><rect class="f" width="42.893" height="1.589" transform="translate(27.007 79.909)"/><rect class="f" width="42.893" height="1.589" transform="translate(27.007 86.263)"/><rect class="f" width="42.893" height="1.589" transform="translate(27.007 91.029)"/><rect class="f" width="42.893" height="1.589" transform="translate(27.007 97.384)"/><rect class="f" width="42.893" height="1.589" transform="translate(27.007 102.15)"/><rect class="f" width="42.893" height="1.589" transform="translate(27.007 106.916)"/><rect class="f" width="42.893" height="1.589" transform="translate(27.007 113.27)"/><rect class="f" width="42.893" height="1.589" transform="translate(27.007 118.036)"/><rect class="f" width="42.893" height="1.589" transform="translate(98.496 64.022)"/><rect class="f" width="42.893" height="1.589" transform="translate(98.496 70.377)"/><rect class="f" width="42.893" height="1.589" transform="translate(98.496 75.143)"/><rect class="f" width="42.893" height="1.589" transform="translate(98.496 79.909)"/><rect class="f" width="42.893" height="1.589" transform="translate(98.496 86.263)"/><rect class="f" width="42.893" height="1.589" transform="translate(98.496 91.029)"/><rect class="f" width="42.893" height="1.589" transform="translate(98.496 97.384)"/><rect class="f" width="42.893" height="1.589" transform="translate(98.496 102.15)"/><rect class="f" width="42.893" height="1.589" transform="translate(98.496 106.916)"/><rect class="f" width="42.893" height="1.589" transform="translate(98.496 113.27)"/><rect class="f" width="42.893" height="1.589" transform="translate(98.496 118.036)"/><rect class="d" width="6.355" height="6.355" transform="translate(81.021 121.213)"/><ellipse class="d" cx="26.371" cy="26.371" rx="26.371" ry="26.371" transform="translate(57.668 69.265)"/><ellipse class="h" cx="21.129" cy="21.129" rx="21.129" ry="21.129" transform="translate(63.069 74.507)"/><rect class="d" width="9.532" height="22.241" transform="translate(79.432 133.923)"/><rect class="c" width="11.12" height="4.766" transform="translate(77.843 129.157)"/><path class="c" d="M345.251,71h-5.4L330,96.418h5.719l2.065-6.355h9.691l2.224,6.355h5.878Zm-6.037,15.886,3.336-9.214,3.336,9.214Z" transform="translate(-258.511 10.497)"/></g></svg>