<svg xmlns="http://www.w3.org/2000/svg" viewBox="376.46 1334.417 168.54 168.54"><defs><style>.a{fill:#3f77eb;}.b{fill:#fff;}.c{fill:#dfe1e3;}.d{fill:#ecf0f1;}.e{fill:#ff8300;}.f{fill:#282828;}.g{fill:#9d2aff;}.h{fill:#c3cccf;}</style></defs><g transform="translate(376.46 1334.417)"><path class="a" d="M283.27,347.54A84.27,84.27,0,1,0,199,263.27a84.378,84.378,0,0,0,84.27,84.27Zm0,0" transform="translate(-199 -179)"/><rect class="b" width="142.119" height="93.011" transform="translate(13.259 18.858)"/><rect class="c" width="68.261" height="89.279" transform="translate(84.27 18.858)"/><path class="b" d="M350.605,198.125c-21.9,0-42.921-9.331-65.805,0v83.582h65.805Zm0,0" transform="translate(-200.53 -179.267)"/><rect class="c" width="68.261" height="89.279" transform="translate(16.009 18.858)"/><path class="b" d="M217.8,198.126c21.9,0,53.626-9.232,65.805,0v83.582H217.8V198.126Zm0,0" transform="translate(-199.335 -179.268)"/><rect class="d" width="2.259" height="83.582" transform="translate(83.19 18.858)"/><rect class="e" width="25.438" height="3.536" transform="translate(24.063 25.929)"/><path class="d" d="M223.5,235.5h50.876v1.67H223.5V235.5Zm67.671,0h50.876v1.67H291.171Zm0-21.8h50.876v1.67H291.171Zm0,16.7h22.3v1.67h-22.3Zm0-3.339h50.876v1.67H291.171Zm0-3.339h50.876v1.67H291.171Zm0-3.339h22.3v1.67h-22.3Zm0-3.339h50.876v1.67H291.171Zm0,35.063h17.483v1.67H291.171Zm0-3.241h50.876v1.67H291.171Zm0-3.339h50.876v1.67H291.171Zm0-3.339h50.876v1.67H291.171Zm0-3.339h50.876v1.67H291.171ZM223.5,213.7h50.876v1.67H223.5V213.7Zm0,16.7h22.3v1.67H223.5Zm0-3.339h50.876v1.67H223.5v-1.67Zm0-3.339h50.876v1.67H223.5v-1.67Zm0-3.339h50.876v1.67H223.5v-1.67Zm0-3.339h50.876v1.67H223.5v-1.67Zm0,35.063h17.483v1.67H223.5Zm0-3.241h50.876v1.67H223.5v-1.67Zm0-3.339h50.876v1.67H223.5v-1.67Zm0-3.339h50.876v1.67H223.5v-1.67Zm0-3.339h50.876v1.67H223.5v-1.67Zm0,0" transform="translate(-199.437 -179.619)"/><path class="f" d="M299.465,234.126a30.756,30.756,0,0,1-12.572,57.359v4.027H282.67v-3.929a30.069,30.069,0,0,1-13.652-4.027,30.748,30.748,0,1,1,30.447-53.43Zm-1.768,3.143A27.142,27.142,0,1,0,307.813,274.3,27.134,27.134,0,0,0,297.7,237.269Zm0,0" transform="translate(-199.972 -179.911)"/><path class="g" d="M281.664,296.7h7.268a1.97,1.97,0,0,1,1.964,1.964l.1,34.179a1.97,1.97,0,0,1-1.964,1.964h-7.268a1.97,1.97,0,0,1-1.964-1.964l-.1-34.179a1.854,1.854,0,0,1,1.964-1.964Zm0,0" transform="translate(-200.439 -181.099)"/><path class="d" d="M301.3,239.591a27.249,27.249,0,1,1-38.3,4.223,27.2,27.2,0,0,1,38.3-4.223Zm0,0" transform="translate(-200.034 -179.974)"/><path class="h" d="M283.282,262.806l-.786-12.179c-.2-2.357-.2-4.027-.2-5.107a4.772,4.772,0,0,1,1.08-3.241,3.633,3.633,0,0,1,2.848-1.179,2.969,2.969,0,0,1,2.946,1.473,10.162,10.162,0,0,1,.688,4.322c0,1.08-.1,2.259-.2,3.438l-1.08,12.474a9.341,9.341,0,0,1-.786,3.438,1.972,1.972,0,0,1-1.964,1.179,1.841,1.841,0,0,1-1.866-1.179,14.748,14.748,0,0,1-.688-3.438Zm2.848,16.7a3.708,3.708,0,0,1-2.652-.982,3.5,3.5,0,0,1-1.179-2.848,3.627,3.627,0,0,1,1.08-2.652,3.415,3.415,0,0,1,2.652-1.08,4.221,4.221,0,0,1,2.75,1.08,3.415,3.415,0,0,1,1.08,2.652,3.3,3.3,0,0,1-1.179,2.75,3.213,3.213,0,0,1-2.554,1.08Zm0,0" transform="translate(-200.486 -180.107)"/><path class="b" d="M282.982,262.706l-.786-12.179c-.2-2.357-.2-4.027-.2-5.107a4.773,4.773,0,0,1,1.08-3.241A3.633,3.633,0,0,1,285.929,241a2.969,2.969,0,0,1,2.947,1.473,10.162,10.162,0,0,1,.688,4.322c0,1.08-.1,2.259-.2,3.438l-1.08,12.474a9.34,9.34,0,0,1-.786,3.438,1.972,1.972,0,0,1-1.964,1.179,1.841,1.841,0,0,1-1.866-1.179,14.746,14.746,0,0,1-.688-3.438Zm2.848,16.7a3.708,3.708,0,0,1-2.652-.982A3.5,3.5,0,0,1,282,275.572a3.627,3.627,0,0,1,1.08-2.652,3.8,3.8,0,0,1,2.652-1.08,4.221,4.221,0,0,1,2.75,1.08,3.556,3.556,0,0,1,1.08,2.652,3.3,3.3,0,0,1-1.179,2.75,3.566,3.566,0,0,1-2.554,1.08Zm0,0" transform="translate(-200.48 -180.106)"/><path class="h" d="M301.308,239.663c.2.1.295.295.491.393h-5.893V237.6h2.357a13.8,13.8,0,0,1,3.045,2.063Zm3.143,2.947a23.9,23.9,0,0,1,1.964,2.455H295.906v-2.455Zm3.634,4.911c.491.786.884,1.67,1.277,2.455H296.1V247.52Zm2.161,5.009a22.935,22.935,0,0,1,.688,2.455H296v-2.455Zm1.179,5.009a20.666,20.666,0,0,1,.2,2.455H296v-2.455ZM257.7,254.984a22.928,22.928,0,0,1,.688-2.455h12.375v2.455Zm1.67-5.009a19.3,19.3,0,0,1,1.277-2.455h10.116v2.455Zm2.75-4.911a10.446,10.446,0,0,1,.884-1.08c.393-.491.786-.884,1.179-1.375h6.581v2.455Zm4.616-5.009a27.464,27.464,0,0,1,3.438-2.455h.491v2.455Zm0,0" transform="translate(-200.047 -180.045)"/><path class="b" d="M260.589,257.229a22.376,22.376,0,0,1,6.581-13.947,23.022,23.022,0,0,1,13.849-6.482,1.838,1.838,0,0,1,1.375.491,1.783,1.783,0,0,1,.589,1.375v.2a1.829,1.829,0,0,1-1.67,1.866,18.5,18.5,0,0,0-11.491,5.4,18.739,18.739,0,0,0-5.4,11.491,1.83,1.83,0,0,1-1.866,1.67h-.2a1.939,1.939,0,0,1-1.375-.589,4.116,4.116,0,0,1-.393-1.473Zm2.848,4.125a2.014,2.014,0,1,1-2.848,0,2.016,2.016,0,0,1,2.848,0Zm0,0" transform="translate(-200.088 -180.031)"/></g></svg>