<svg xmlns="http://www.w3.org/2000/svg" viewBox="375 1103.842 170 170"><defs><style>.a{fill:#3f77eb;}.b{fill:#e01919;}.c{fill:#ff8300;}.d{fill:#fffc00;}.e{fill:#fff;}.f{fill:#e6e9ee;}.g{fill:#10ca02;}.h{fill:#acb3ba;}</style></defs><g transform="translate(-2422.014 -4427.204)"><circle class="a" cx="85" cy="85" r="85" transform="translate(2797.014 5531.045)"/><rect class="b" width="18.314" height="55.644" transform="translate(2898.313 5559.086)"/><rect class="c" width="18.314" height="42.675" transform="translate(2872.988 5572.231)"/><rect class="d" width="18.314" height="29.443" transform="translate(2847.751 5585.2)"/><path class="e" d="M1059.948,555.6H968.2V532.2h91.923a11.594,11.594,0,0,1,11.655,11.655h0A11.817,11.817,0,0,1,1059.948,555.6Z" transform="translate(1862.288 5108.557)"/><g transform="translate(2878.246 5643.561)"><path class="f" d="M1022.788,536.8H1075.8a5.279,5.279,0,0,0-.7-.7h0l-.7-.7h-51.7v1.4Z" transform="translate(-1022.7 -535.4)"/><path class="f" d="M1022.8,539.9h54.593a1.165,1.165,0,0,1-.263-.7h0c-.175-.263-.263-.438-.438-.7H1022.8v1.4Z" transform="translate(-1022.712 -535.784)"/><path class="f" d="M1022.788,543.1h55.557c0-.263-.175-.438-.175-.7h-.175c0-.263-.175-.438-.175-.7H1022.7v1.4Z" transform="translate(-1022.7 -536.179)"/><path class="f" d="M1022.8,546.1h55.644v-.7h0v-.7H1022.8Z" transform="translate(-1022.712 -536.551)"/><path class="f" d="M1022.8,549.1h55.119c0-.263.175-.438.175-.7h0c0-.263.175-.438.175-.7h-55.381v1.4Z" transform="translate(-1022.712 -536.922)"/><path class="f" d="M1022.8,552.3h53.892c.175-.263.263-.438.438-.7h0a1.166,1.166,0,0,0,.263-.7H1022.8v1.4Z" transform="translate(-1022.712 -537.318)"/><path class="f" d="M1022.8,555.3h51.7a5.287,5.287,0,0,0,.7-.7h0l.7-.7h-53.016v1.4Z" transform="translate(-1022.712 -537.689)"/></g><path class="b" d="M966.5,553.934h93.237a10.253,10.253,0,1,0,0-20.505H966.5V530.8h93.237a12.883,12.883,0,1,1,0,25.763H966.5Z" transform="translate(1862.498 5108.73)"/><path class="f" d="M1072.967,500.814c-.175-.526-.438-.964,0-1.314h-93.5a11.567,11.567,0,0,0,0,23.134h93.675c-.438-.438-.263-.7,0-1.314A17.359,17.359,0,0,1,1072.967,500.814Z" transform="translate(1862.325 5112.602)"/><path class="g" d="M1072.806,521.034H979.657a10.253,10.253,0,1,1,0-20.505h93.237V497.9H979.657a12.883,12.883,0,1,0,0,25.763h93.237v-2.629Z" transform="translate(1862.486 5112.8)"/><g transform="translate(2866.416 5616.221)"><path class="h" d="M1020.5,504.2v3.155h56.345a15.637,15.637,0,0,1,1.227-3.155Z" transform="translate(-1010.598 -504.2)"/><path class="h" d="M1033.4,514.055h44.516a9.534,9.534,0,0,1,0-3.155H1033.4Z" transform="translate(-1012.194 -505.029)"/><path class="h" d="M1009.288,520.655h67.3c-.526-1.052-.789-2.1-1.227-3.155H1009.2v3.155Z" transform="translate(-1009.2 -505.845)"/></g></g></svg>