<svg xmlns="http://www.w3.org/2000/svg" viewBox="975 1334.833 170 170"><defs><style>.a{fill:#3f77eb;}.b{fill:#ec4b53;}.c{fill:#ef3a3a;}.d{fill:#ff8300;}.e{fill:#fffc00;}.f{fill:#9d2aff;}.g{fill:#fff;}</style></defs><g transform="translate(975 1334.833)"><path class="a" d="M482,327a85,85,0,1,0-85-85,85.131,85.131,0,0,0,85,85Zm0,0" transform="translate(-397 -157)"/><path class="b" d="M511.433,301.352c.751.334,20.791,9.769,30.727-6.68,10.1-16.783,2.672-16.115,2.5-17.451s14.7-16.95-3.423-28.639c0,0-22.043-50.265-78.738-25.717,0,0-17.451-2.5-25.968,16.532,0,0-21.125,7.765-12.358,32.814,8.684,25.049,29.641,13.777,29.641,13.777C456.659,301.6,474.778,305.36,487.8,298.6c0,0,4.342,4.843,9.6,3.006.167-.751,1.586-.167.668-2.672,1.336-2,4.342-3.006,9.769-.5.25.25.752.668.752.585Zm0,0" transform="translate(-401.134 -166.755)"/><path class="c" d="M438.441,240.109c-.25.417-13.861,3.841-14.862,17.284-1.5,20.707,13.109,35.4,30.643,26.469,3.674,14.779,23.63,20.29,34.484,11.606,0,0,2.839,7.1,9.435,3.59l.334.334c1.586,0,5.761,2.588,9.435-.835a3.032,3.032,0,0,0,.751.584c.5.083,1.253-.167,1.587.083,22.461,12.859,36.989-9.268,34.484-18.119-.334-1.252-.918-1.419-2-2.087a3.921,3.921,0,0,1,1.085-3.34c6.346-7.515,9.6-19.2-3.674-25.717-13.443-29.725-46.174-42.583-78.654-25.3-18.7-1.252-22.795,15.029-23.045,15.447Zm0,0" transform="translate(-401.369 -166.882)"/><path class="d" d="M473.987,230.2a1.216,1.216,0,1,1-.668-2.338s9.519-2.672,11.69,5.093a7.049,7.049,0,0,1,5.845-.584c-.334-2.672.417-6.262,6.262-7.765a1.216,1.216,0,0,1,.668,2.338c-6.68,1.753-3.841,7.348-3.841,7.348h0a1.144,1.144,0,0,1-.167,1.252,1.191,1.191,0,0,1-1.67.167,5.035,5.035,0,0,0-6.6-.167c0,4.509-6.1,5.511-6.179,5.511a1.147,1.147,0,0,1-1-.334c-7.014-6.6-14.7,1.753-14.779,1.837a1.276,1.276,0,0,1-1.5.25c-6.93-4.091-.919-16.2.417-18.787a8.98,8.98,0,0,1,1.336.084c.417-.167.751-.334,1.085-.5a1.027,1.027,0,0,1-.083,1.085s-6.6,11.523-2.338,15.447c2.338-2.171,9.769-7.765,16.95-1.586,1.169-.334,3.841-1.252,3.507-3.423v-.083c-.751-7.181-8.934-4.843-8.934-4.843Zm72.81,49.013c-.5-.334-.835-.5-.918-.835a8.244,8.244,0,0,1,1-1.92c-.752-3.757-3.841-3.674-5.427-3.256a12.264,12.264,0,0,1-.418-8.851c0-.083,0-.083.084-.167,1.67-4.843,9.6-2.839,9.6-2.839a.706.706,0,0,0,.584,0,13.909,13.909,0,0,0-.668-2.5c-2.171-.417-8.433-1.086-11.105,3.173a4.991,4.991,0,0,0-4.175-.585c-1.586-6.262-7.431-4.008-7.431-3.924a1.241,1.241,0,1,0,.835,2.338s3.424-1.336,4.342,2.672c-2.088.585-6.429,2.338-7.014,7.014a1.217,1.217,0,1,0,2.421.251c.585-4.175,5.594-5.093,6.1-5.177a1.031,1.031,0,0,0,.668-.334,2.51,2.51,0,0,1,3.34.083,14.981,14.981,0,0,0,.167,8.266,9.538,9.538,0,0,0-9.853,3.34l-.167.167c-3.423,5.928-10.27,3.674-12.441,2.755-.25-9.769-11.272-7.765-11.272-7.765a1.229,1.229,0,1,0,.417,2.421s7.932-1.419,8.433,5.01a12.856,12.856,0,0,0-11.105,9.686,1.2,1.2,0,1,0,2.338.5,10.384,10.384,0,0,1,9.686-7.849c1.837.835,11.272,4.676,15.948-3.507.417-.5,3.674-4.425,9.519-1.586a1.4,1.4,0,0,0,1,.084h0s3.34-1.419,3.34,2.588a1.213,1.213,0,0,0,1.252,1.169,1.078,1.078,0,0,0,.919-.418Zm-3.841-29.14c-.083.084-.167.084-.25.167a10.649,10.649,0,0,0-4.258,4.509,1.2,1.2,0,1,1-2.171-1,13.435,13.435,0,0,1,5.344-5.678,15.966,15.966,0,0,1,.835,1.753l.5.25ZM438.667,238.88c-.25.5-.5,1.085-.835,1.67,0,0-.417.167-1.085.5,0,.083.084.083.084.167a1.13,1.13,0,0,0,1.67.334,2.786,2.786,0,0,1,1-.418,9.526,9.526,0,0,1,4.676-.167,6.954,6.954,0,0,1,4.592,3.089c.25.334.418.751.668,1.169-2.254.5-6.179,2.087-6.763,6.847a1.217,1.217,0,0,0,2.421.251c.5-4.258,4.926-4.843,5.845-4.926a6.09,6.09,0,0,1,4.509,5.177,1.217,1.217,0,0,0,2.421-.251,8.71,8.71,0,0,0-5.845-7.1,11.7,11.7,0,0,0-1.252-2.5,9.465,9.465,0,0,0-6.179-4.175,11.526,11.526,0,0,0-5.928.251ZM429.9,282.132a17.043,17.043,0,0,0,1.92,2.254,1.2,1.2,0,0,0,.418-.918c.083-3.59.918-6.429,2.5-8.433a8.311,8.311,0,0,1,5.093-2.839c.167,3.006,1.252,5.01,2.672,6.179l.084.084a5.2,5.2,0,0,0,2.839,1.085,6.914,6.914,0,0,0,2.922-.417,6.644,6.644,0,0,0,4.008-4.843,1.2,1.2,0,0,0-2.338-.5,4.267,4.267,0,0,1-2.588,3.089,3.223,3.223,0,0,1-1.753.251,3.66,3.66,0,0,1-1.586-.584l-.084-.084c-.918-.751-1.67-2.171-1.753-4.509h0c2.922-.083,3.841-.751,3.757-2.171a4.832,4.832,0,0,0-1-2.254c-1.169-1.753-3.089-4.509.25-8.517a1.245,1.245,0,1,0-1.92-1.586c-4.509,5.427-1.92,9.185-.334,11.439.334.5.584.918.584.918,0,.25-.334-.417-1.419-.334-4.258.083-7.264,1.5-9.352,3.924a17.646,17.646,0,0,0-2.922,8.767Zm24.047,5.594c.668-.334,1.085-.5,1.085-.5.083.417.167.835.25,1.169h.083a1.2,1.2,0,0,0,.835-1.5c-.584-2.254-.25-6.763,2.087-10.938a15.973,15.973,0,0,1,8.1-7.1,1.129,1.129,0,0,0,.751-.751c.334-.668,3.006-6.1,6.847-5.177.918.334,7.932,2.839,10.688-1.336,2.755.334,11.105.417,12.358-8.183,3.507-.417,14.779-2.755,15.7-13.944a10.143,10.143,0,0,0,10.521-5.01,1.217,1.217,0,0,0-2.087-1.252,7.958,7.958,0,0,1-8.684,3.757c-3.256-8.6-10.938-4.091-10.938-4.091a1.217,1.217,0,0,0,1.253,2.087s5.344-3.173,7.6,3.173c-.167,10.187-10.27,12.358-13.526,12.775-2.922-10.771-11.857-4.926-11.857-4.926a1.217,1.217,0,0,0,1.253,2.087s6.429-4.175,8.35,4.258c-.751,8.35-9.853,6.847-10.437,6.763a1.143,1.143,0,0,0-1.336.751c-1.419,3.34-7.348,1.085-8.016.918-.083,0-.167-.084-.251-.084a3.551,3.551,0,0,0-.918-.167c-1.837-7.014,2.338-6.93,2.338-6.93a1.211,1.211,0,0,0-.083-2.421s-7.1,0-4.759,9.686c-3.256,1-5.427,4.592-6.1,5.928-4.425,1.085-5.26-1.92-5.26-1.92h0a1.339,1.339,0,0,0-1.169-.918c-3.089.084-3.089-3.173-3.089-3.256a1.211,1.211,0,1,0-2.421.084s0,5.177,4.676,5.594a5.61,5.61,0,0,0,3.173,2.755,18.1,18.1,0,0,0-5.01,5.761c-2.672,4.759-3.089,10.1-2.338,12.775.334-.084.334,0,.334.083Zm33.983,12.608a1.173,1.173,0,0,1,.25-1.419c.835-.835,1.5-3.59,1.336-6.513a13.315,13.315,0,0,0-.585-3.173,7.012,7.012,0,0,0-1.586-2.588h0a7.088,7.088,0,0,0-5.761-1.837h-.334c-.585-.084-5.427-.5-5.093,3.34a1.217,1.217,0,1,1-2.421.251c-.418-5.26,4.091-6.012,6.513-6.012V278.04c-7.348.334-5.093-8.266-5.093-8.266a1.216,1.216,0,0,1,2.338.668s-1.586,6.1,3.757,5.093a1.238,1.238,0,0,1,.584.084c.835.25,8.934,2.338,12.191-4.592-3.006-2.171-6.429,0-6.429,0a1.217,1.217,0,1,1-1.252-2.087s9.853-6.346,13.443,7.181a1.216,1.216,0,0,1-2.338.668,12.961,12.961,0,0,0-1.586-3.841c-3.423,6.1-10.1,5.845-13.109,5.344v4.258a9.119,9.119,0,0,1,6.429,2.5h0a9.934,9.934,0,0,1,2.171,3.423,15.634,15.634,0,0,1,.751,3.841c.251,3.59-.835,7.1-2,8.35-.585-.5-.918-.835-.918-.835a9.721,9.721,0,0,0-1.252.5Zm13.526-35.319a1.241,1.241,0,0,1-1.67-1.837s3.507-3.089,7.6-2.755a10.423,10.423,0,0,1,.668-5.761,9.62,9.62,0,0,1,5.01-5.093l1.252-.5c2.922-.918,4.843-.083,6.012,1.085a11.339,11.339,0,0,1,5.511-7.264c6.346-3.256,10.855,2.672,10.938,2.672a1.194,1.194,0,0,1-1.92,1.419s-3.34-4.342-7.849-2c-3.59,1.837-4.425,5.845-4.592,7.765,3.34,1.169,2.171,7.348,2.171,7.348a1.229,1.229,0,0,1-2.422-.418s.835-4.759-1-4.759a1.33,1.33,0,0,1-1.253-1h0a3.535,3.535,0,0,0-4.843-2.672c-.334.084-.668.25-1,.334a7.632,7.632,0,0,0-3.757,3.841,8.122,8.122,0,0,0-.334,5.26c0,.167.083.25.167.417,1.67.835,3.256,2.5,4.676,5.344a1.233,1.233,0,0,1-2.171,1.169c-4.425-8.6-11.188-2.588-11.188-2.588ZM519.993,293.4a1.233,1.233,0,1,1-2.171-1.169s4.509-8.266,10.771-4.759a10.536,10.536,0,0,1,8.1-3.423c6.346.334,5.594,5.511,5.594,5.511a1.217,1.217,0,0,1-2.421-.25s.418-2.672-3.256-2.839a7.745,7.745,0,0,0-6.1,2.588c4.008,5.26-1.92,10.771-1.92,10.771a1.291,1.291,0,0,1-1.753-.084,1.214,1.214,0,0,1,.083-1.753s4.676-4.342,1.169-8.016c-4.509-3.089-8.1,3.423-8.1,3.423Zm0,0" transform="translate(-402.429 -167.991)"/><path class="d" d="M512.968,315.3c.751,1.753-.5,1.92-.668,2.672,1.169,1.085,6.346,3.924,10.1,7.1,4.592,3.924,3.841,5.427,6.93,5.594,1.5.083,4.759-.585,4.509-2.755-.5-3.924-7.515-10.187-7.515-10.187h0l-2.839-2.338c-3.423,2.338-7.014,1.67-10.521-.084Zm0,0" transform="translate(-416.028 -183.124)"/><path class="e" d="M513.1,315.2c2,2.254,12.441,10.771,14.529,13.193s6.012.084,5.01-2.672-9.018-10.437-9.018-10.437c.083.084-.417-.334-.751-.584-4.592,2.5-7.6.584-9.769.5Zm0,0" transform="translate(-416.16 -183.025)"/><path class="f" d="M435.664,172.9a23.964,23.964,0,1,0,10.688,45.422l12.191,7.014-7.431-10.1A23.949,23.949,0,0,0,435.664,172.9Zm0,0" transform="translate(-399.426 -159.624)"/><path class="g" d="M427.2,191.168a7.725,7.725,0,0,1,1.336-4.258,10.96,10.96,0,0,1,3.924-3.59,12.781,12.781,0,0,1,6.012-1.419,13.514,13.514,0,0,1,5.678,1.169,8.354,8.354,0,0,1,3.757,3.173,7.663,7.663,0,0,1,1.336,4.425,6.7,6.7,0,0,1-.751,3.256,8.837,8.837,0,0,1-1.837,2.421c-.668.668-1.92,1.837-3.757,3.423a7.652,7.652,0,0,0-1.169,1.169,4.962,4.962,0,0,0-.668.918,3.49,3.49,0,0,0-.334.835c-.083.25-.167.751-.334,1.5a2.449,2.449,0,0,1-2.672,2.254,2.645,2.645,0,0,1-1.92-.751,3.062,3.062,0,0,1-.751-2.254,7.185,7.185,0,0,1,.584-3.173,11.813,11.813,0,0,1,1.5-2.421c.668-.668,1.5-1.5,2.588-2.421a27.174,27.174,0,0,0,2-1.837,9.118,9.118,0,0,0,1.085-1.419,3.8,3.8,0,0,0,.418-1.67,3.881,3.881,0,0,0-1.336-3.006,4.8,4.8,0,0,0-3.423-1.252,4.689,4.689,0,0,0-3.59,1.252,9.619,9.619,0,0,0-1.92,3.59c-.5,1.67-1.419,2.5-2.839,2.5a2.769,2.769,0,0,1-2.087-.835,1.637,1.637,0,0,1-.835-1.586Zm10.771,24.214a3.8,3.8,0,0,1-2.338-.835,3.089,3.089,0,0,1-1-2.421,3.283,3.283,0,0,1,3.423-3.256,3.428,3.428,0,0,1,2.338.918,3.431,3.431,0,0,1-.084,4.759,3.655,3.655,0,0,1-2.338.835Zm0,0" transform="translate(-401.984 -161.109)"/><path class="f" d="M552.447,172.9a23.964,23.964,0,1,1-10.688,45.422l-12.19,7.014,7.431-10.1A23.949,23.949,0,0,1,552.447,172.9Zm0,0" transform="translate(-418.685 -159.624)"/><path class="g" d="M553.5,200.489l-.752-11.022c-.167-2.171-.167-3.674-.167-4.676a4.358,4.358,0,0,1,1-3.006,3.232,3.232,0,0,1,2.588-1.085,2.7,2.7,0,0,1,2.672,1.336,9.771,9.771,0,0,1,.668,3.924c0,1-.083,2.087-.167,3.089l-1,11.356a8.528,8.528,0,0,1-.668,3.089,1.959,1.959,0,0,1-3.507,0,6.915,6.915,0,0,1-.668-3.006Zm2.5,15.2a3.638,3.638,0,0,1-2.421-.918,3.261,3.261,0,0,1-1.086-2.588,3.421,3.421,0,0,1,3.423-3.423,3.535,3.535,0,0,1,2.5,1,3.344,3.344,0,0,1,1,2.421,3.15,3.15,0,0,1-1,2.5,3.344,3.344,0,0,1-2.421,1Zm0,0" transform="translate(-422.662 -160.911)"/><path class="g" d="M497.018,204.738a.633.633,0,0,1-.334.167h-.5a.638.638,0,0,1-.418-.167.434.434,0,0,1-.334-.167c-.083-.084-.167-.084-.167-.167a1.826,1.826,0,0,1-.418-.251.948.948,0,0,1-.25-.668h0a.907.907,0,0,1-.751-.334,1.021,1.021,0,0,1-.25-.751.5.5,0,0,1,.083-.334.819.819,0,0,1-.083-1.085,1.187,1.187,0,0,1-.167-.5.9.9,0,0,1,.167-.5,1.187,1.187,0,0,1-.167-.5c0-.334.167-.25.084-.25h0c-.25-.084-.584-.167-.584-1v-3.507a9.581,9.581,0,0,1-3.507-3.34A9.957,9.957,0,0,1,488,186.452a9.271,9.271,0,0,1,2.672-6.6,9.145,9.145,0,0,1,6.513-2.755,9.42,9.42,0,0,1,7.932,14.111h0a9.112,9.112,0,0,1-3.173,3.256v3.757c0,1.336-.5,1.252-1.085,1.252h0c-.083,0,.167,0,.167.084a.9.9,0,0,1-.167.5,1.186,1.186,0,0,1,.167.5.9.9,0,0,1-.167.5,1.186,1.186,0,0,1,.167.5.758.758,0,0,1-.251.584c0,.084.083.251.083.334a1.166,1.166,0,0,1-.25.751h0a1.058,1.058,0,0,1-.751.334h0a.948.948,0,0,1-.25.668h0a.459.459,0,0,1-.417.251l-.167.167h-.084c-.083.083-.25.083-.334.167a.638.638,0,0,1-.417.167h-.5a1.317,1.317,0,0,1-.668-.251Zm-.918-1h0a.417.417,0,0,0,.5,0h.835a.417.417,0,0,0,.5,0h.167a.564.564,0,0,1,.5-.334h0a.459.459,0,0,1-.251-.417.539.539,0,0,1,.5-.5h.751c-.084-.083-.167-.167-.167-.25a.568.568,0,0,1,.334-.668h-.084V200.4h0v-1h.167c0-1.169.5-1.169,1-1.085,0,0-.083,0-.083-.167V194.05h0a.459.459,0,0,1,.25-.417,7.992,7.992,0,0,0,3.006-3.006h0a8.874,8.874,0,0,0,1.085-4.175,8.323,8.323,0,0,0-2.421-5.928,8.065,8.065,0,0,0-11.523,0,8.323,8.323,0,0,0-2.421,5.928A8.05,8.05,0,0,0,490,190.877a8.88,8.88,0,0,0,3.256,3.089.564.564,0,0,1,.334.5v3.841c0,.083-.167,0-.167.083h0c.251.084.584.25.584,1.252h0a.292.292,0,0,0,.167.083h0v1h0v1H494.1a.267.267,0,0,1,.25.251.544.544,0,0,1-.167.751h.751a.459.459,0,0,1,.418.251.544.544,0,0,1-.167.751h0a.519.519,0,0,1,.5.334h.418Zm-1.92-4.509Zm5.678,2.254Zm-.167.918Zm-1.085,1Zm0,0" transform="translate(-412.018 -160.317)"/><path class="g" d="M495.518,187.951l1.5,11.022h2.254l1.586-11.189.585-.083-1.586,11.606v.25H496.6v-.25l-1.5-11.272Zm0,0" transform="translate(-413.189 -162.066)"/><path class="g" d="M498.661,186l-.167,1.252,4.676-.668-6.346,2.672.251-1.753-4.175.835Zm0,0" transform="translate(-412.826 -161.786)"/><path class="g" d="M484.676,199.015l3.924-5.427a.505.505,0,0,1,.668-.084h0a.505.505,0,0,1,.083.668l-3.924,5.344a.505.505,0,0,1-.668.084h0a.4.4,0,0,1-.084-.584Zm22.711-6.1L504.632,191a.517.517,0,0,0-.668.084h0a.631.631,0,0,0,.083.668l2.755,1.92a.517.517,0,0,0,.668-.083h0a.489.489,0,0,0-.083-.668Zm-1.5,6.1a.476.476,0,1,1-.751.584l-3.924-5.344a.476.476,0,0,1,.752-.584ZM506.8,174.8l-2.5,2.171a.517.517,0,0,0-.083.668h0a.505.505,0,0,0,.668.084l2.5-2.171a.517.517,0,0,0,.084-.668h0c-.25-.167-.5-.251-.668-.083Zm3.34,9.018-3.34.167a.418.418,0,0,0-.417.5h0a.529.529,0,0,0,.5.417l3.34-.167a.418.418,0,0,0,.417-.5h0a.468.468,0,0,0-.5-.417ZM504.8,168.789a.487.487,0,1,1,.835.5l-3.34,5.761a.451.451,0,0,1-.668.167h0a.451.451,0,0,1-.167-.668Zm7.515,8.934a.45.45,0,1,1,.334.835l-6.179,2.5a.431.431,0,0,1-.585-.25h0a.431.431,0,0,1,.25-.584Zm.417,11.773L506.3,187.66a.475.475,0,0,0-.585.334h0a.475.475,0,0,0,.334.584l6.429,1.837a.475.475,0,0,0,.585-.334h0a.475.475,0,0,0-.334-.584ZM498.62,169.875l-.668,3.256a.475.475,0,0,0,.334.584.559.559,0,0,0,.584-.334l.668-3.256a.475.475,0,0,0-.334-.584h0c-.334-.084-.585.083-.585.334ZM494.78,166.2l.083,6.68a.468.468,0,0,0,.5.417h0a.468.468,0,0,0,.418-.5l-.083-6.68a.468.468,0,0,0-.5-.417c-.167.083-.417.25-.417.5Zm-2.839,3.674.668,3.256a.475.475,0,0,1-.334.584h0c-.25,0-.5-.084-.5-.334l-.668-3.256a.475.475,0,0,1,.334-.584h0a.368.368,0,0,1,.5.334Zm-6.179-1.085,3.34,5.761a.451.451,0,0,1-.167.668h0a.451.451,0,0,1-.668-.167l-3.34-5.761a.451.451,0,0,1,.167-.668.437.437,0,0,1,.668.167Zm-2,6.012c-.167-.167-.417-.084-.668.083h0a.441.441,0,0,0,.083.668l2.5,2.171c.167.167.417.083.668-.084a.441.441,0,0,0-.083-.668Zm-5.511,2.922,6.179,2.5a.431.431,0,0,1,.25.584h0a.431.431,0,0,1-.584.25l-6.179-2.5a.431.431,0,0,1-.25-.584.509.509,0,0,1,.585-.251Zm2.171,6.1,3.34.167a.418.418,0,0,1,.417.5h0a.529.529,0,0,1-.5.417l-3.34-.167a.418.418,0,0,1-.417-.5h0a.468.468,0,0,1,.5-.417ZM477.83,189.5l6.429-1.837a.476.476,0,1,1,.251.918l-6.429,1.837a.475.475,0,0,1-.585-.334h0a.475.475,0,0,1,.334-.584Zm5.344,3.423a.505.505,0,0,0-.083.668h0c.083.25.417.25.668.083l2.755-1.92a.505.505,0,0,0,.083-.668h0c-.083-.25-.417-.25-.668-.084Zm0,0" transform="translate(-410.281 -158.436)"/></g></svg>