<svg xmlns="http://www.w3.org/2000/svg" viewBox="975 1103.625 170 170"><defs><style>.a{fill:#3f77eb;}.b{fill:#ff8300;}.c{fill:#fffc00;}.d{fill:#fff;}.e{fill:#fbb429;}</style></defs><g transform="translate(975 1103.625)"><path class="a" d="M1075.6,362.6a85,85,0,1,0-85-85,85.12,85.12,0,0,0,85,85Zm0,0" transform="translate(-990.6 -192.6)"/><path class="b" d="M1109.932,332.793l-6.581-28.333s22.644-21.752,20.079-49.751c-2.566-27.887-30.676-45.512-59.232-37.927s-33.353,30.564-33.465,34.245c-.111,3.793,3.346,13.386.892,19.967-2.566,6.581-11.6,16.844-10.82,19.856.892,3.012,8.7,3.57,8.7,3.57s.112,3.012-1,3.57c-1,.669-.446,3.123,1.227,4.462a18.7,18.7,0,0,0,4.574,2.342s-3.235.781-2.9,3.123c.446,2.343,1.562,3.458,4.016,3.57s3.124-1,3.458.223c.446,1.227.669,1.339.669,1.339s-2.454,6.247-.335,10.932,5.354,4.685,9.259,3.681c3.793-1,11.266-3.123,11.266-3.123l2.008,10.374c2.119,15.059-8.143,22.756-8.366,22.867a86.145,86.145,0,0,0,18.74,2.119,85.182,85.182,0,0,0,50.532-16.621c-1.339-.558-12.27-10.039-12.717-10.486Zm0,0" transform="translate(-987.118 -190.011)"/><path class="c" d="M1038,315.748c2.119,3.346,5.131,3.235,8.478,2.454,3.793-1,11.266-3.123,11.266-3.123l2.008,10.374a27.232,27.232,0,0,1-1.227,12.828h0c7.027-10.151,1.9-17.848,2.789-21.64s15.728-7.474,18.852-9.816,5.354-8.924,5.354-8.924a43.459,43.459,0,0,1-6.47,7.7c-3.346,2.9-29,10.486-33.911,12.159-4.685,1.45-6.916-1.673-7.139-2.008Zm0,0" transform="translate(-985.126 -180.439)"/><path class="c" d="M1053.3,219.125c17.848-6.47,38.93-3.012,51.647,10.039,15.282,15.617,18.74,43.95-7.808,73.957l8.924,29.672-6.582-28.333s22.644-21.752,20.079-49.751c-2.566-27.887-30.676-45.512-59.232-37.927a64.852,64.852,0,0,0-7.027,2.342Zm0,0" transform="translate(-983.359 -190.011)"/><path class="d" d="M1073.233,229a16.952,16.952,0,0,1,16.732,17.178,17.482,17.482,0,0,1-8.478,14.948v7.808a1.716,1.716,0,0,1-1.673,1.673h-12.27a1.716,1.716,0,0,1-1.673-1.673v-7.362a17.077,17.077,0,0,1-9.37-15.394A16.881,16.881,0,0,1,1073.233,229Zm0,0" transform="translate(-982.99 -188.396)"/><path class="e" d="M1067.039,266.1H1077.3c.781,0,1.339.446,1.339,1s-.558,1-1.339,1c.781,0,1.339.446,1.339,1s-.558,1-1.339,1c.781,0,1.339.446,1.339,1s-.558,1-1.339,1h-10.262c-.781,0-1.339-.446-1.339-1s.558-1,1.339-1c-.781,0-1.339-.446-1.339-1s.558-1,1.339-1c-.781,0-1.339-.446-1.339-1s.558-1,1.339-1Zm0,0" transform="translate(-981.927 -184.112)"/><path class="e" d="M1067.4,244l2.677,21.64h3.9l2.677-21.64,1,.112-2.789,22.2-.111.446h-5.578l-.111-.446-2.677-22.2,1-.112Zm0,0" transform="translate(-981.846 -186.664)"/><path class="e" d="M1074.066,241.5l-.335,2.454,9.147-1.339-12.382,5.131.446-3.346-8.143,1.562,11.267-4.462Zm0,0" transform="translate(-982.262 -186.953)"/><path class="d" d="M1071.254,276.162v.335h-1v-.335h-.446a1.138,1.138,0,0,1-.892-.558h0a1,1,0,0,1-1-1,1.377,1.377,0,0,1,.446-.892h-1.45a1,1,0,1,1,0-2.008h10.262a1,1,0,0,1,0,2.008h-1.45a1.378,1.378,0,0,1,.446.892,1,1,0,0,1-1,1h0a.883.883,0,0,1-.892.558h-.446v.335h-1v-.335Zm0,0" transform="translate(-981.904 -183.465)"/></g></svg>