<svg xmlns="http://www.w3.org/2000/svg" viewBox="2481 4136 172.991 167.847"><defs><style>.a{fill:#4a6ef4;}.b{fill:#484f59;}.c{fill:#e5e8ec;}.d{fill:#cdd5d7;}.e{fill:#fffc00;}.f{fill:#d6d00b;}</style></defs><g transform="translate(2481 4136)"><path class="a" d="M106.21,189.347c-46.946,0-85.21-37.621-85.21-83.923S59.264,21.5,106.21,21.5s85.21,37.621,85.21,83.923S153.155,189.347,106.21,189.347Z" transform="translate(-21 -21.5)"/><path class="b" d="M98.842,96.964a1.262,1.262,0,0,1,0,1.768h0L83.086,113.524a1.262,1.262,0,0,1-1.769,0h0L56.237,87.157a1.262,1.262,0,0,1,0-1.769h0L71.832,70.437a1.262,1.262,0,0,1,1.768,0h0Z" transform="translate(0.195 8.02)"/><path class="c" d="M103.035,112.714a1.423,1.423,0,0,1-.322,1.769h0L84.385,125.9a1.423,1.423,0,0,1-1.768-.322h0L63.163,94.707a1.468,1.468,0,0,1,.322-1.769L81.813,81.363a1.423,1.423,0,0,1,1.769.322h0Z" transform="translate(4.522 14.779)"/><path class="d" d="M68.588,93.8a1.423,1.423,0,0,1,.322-1.769h0l15.113-9.486-.482-.8a1.293,1.293,0,0,0-1.768-.482h0L63.443,93a1.293,1.293,0,0,0-.482,1.769h0l19.454,30.708a1.293,1.293,0,0,0,1.768.482h0l3.215-2.09Z" transform="translate(4.403 14.721)"/><path class="d" d="M99.924,78.356a2.872,2.872,0,0,1-.161,4.18L72.593,108.581a2.872,2.872,0,0,1-4.18-.161l-12.7-13.183a2.872,2.872,0,0,1,.161-4.18L83.043,65.012a2.872,2.872,0,0,1,4.18.161Z" transform="translate(-0.406 4.442)"/><path class="d" d="M41.222,72.4,61.64,64.684A2.912,2.912,0,0,1,65.5,66.452L74.18,89.764a2.912,2.912,0,0,1-1.768,3.859L51.993,101.34a2.912,2.912,0,0,1-3.859-1.769L39.453,76.42A3.308,3.308,0,0,1,41.222,72.4Z" transform="translate(-9.871 4.609)"/><path class="c" d="M61.646,64.783,41.228,72.5a3.04,3.04,0,0,0-1.768,3.859l4.019,10.772,25.884-9.646L65.344,66.712a2.679,2.679,0,0,0-3.7-1.929Z" transform="translate(-9.877 4.671)"/><rect class="e" width="9.968" height="35.692" transform="translate(34.726 73.123) rotate(-20.561)"/><rect class="e" width="46.463" height="40.515" transform="translate(43.064 67.355) rotate(-20.561)"/><rect class="f" width="46.463" height="16.881" transform="translate(51.408 89.582) rotate(-20.561)"/><rect class="f" width="1.929" height="40.515" transform="matrix(0.936, -0.351, 0.351, 0.936, 41.649, 67.902)"/><path class="c" d="M151.422,64.129A222.043,222.043,0,0,0,132.129,24.9C122.643,41.138,100.778,58.5,72,72.006l.8,2.251,12.862,34.084.8,2.251c30.547-8.842,58.521-10.129,76.367-4.18A225.023,225.023,0,0,0,151.422,64.129Z" transform="translate(9.994 -19.434)"/><path class="d" d="M76.6,76.61l6.27,16.72.8,2.251c30.547-8.843,58.521-10.129,76.367-4.18a219.455,219.455,0,0,0-11.093-41.8Z" transform="translate(12.79 -4.423)"/><path class="e" d="M110.29,24.9c-.643,1.125-1.447,2.251-2.09,3.376a226.134,226.134,0,0,1,18.007,37.139,224.938,224.938,0,0,1,10.933,39.872A34.92,34.92,0,0,1,141,106.412a223.022,223.022,0,0,0-11.254-42.123A242.446,242.446,0,0,0,110.29,24.9Z" transform="translate(31.994 -19.434)"/><rect class="e" width="16.238" height="3.537" transform="matrix(0.979, -0.204, 0.204, 0.979, 7.214, 99.949)"/><rect class="e" width="16.238" height="3.537" transform="matrix(0.746, -0.666, 0.666, 0.746, 25.507, 136.59)"/><rect class="e" width="16.238" height="3.537" transform="matrix(0.313, -0.95, 0.95, 0.313, 59.611, 159.297)"/><rect class="e" width="3.537" height="16.238" transform="matrix(0.979, -0.204, 0.204, 0.979, 97.085, 145.88)"/><rect class="e" width="3.537" height="16.238" transform="matrix(0.746, -0.666, 0.666, 0.746, 126.185, 131.455)"/><rect class="e" width="16.238" height="3.537" transform="matrix(0.313, -0.95, 0.95, 0.313, 101.73, 23.664)"/><rect class="e" width="3.537" height="16.238" transform="matrix(0.979, -0.204, 0.204, 0.979, 65.743, 7.453)"/><rect class="e" width="3.537" height="16.238" transform="matrix(0.746, -0.666, 0.666, 0.746, 29.874, 27.217)"/><rect class="e" width="3.537" height="16.238" transform="matrix(0.312, -0.95, 0.95, 0.312, 8.82, 62.392)"/></g></svg>