<svg xmlns="http://www.w3.org/2000/svg" viewBox="1275 4530 170 162.826"><defs><style>.a{fill:#a43df2;}.b{fill:#062572;}.c{fill:#fff;}.d{fill:#0b32af;}.e{fill:#d9d8d7;}.f{fill:#4a6ef4;}.g{fill:#fffc00;}.h{fill:#e5d907;}.i{fill:#1a47d6;}.j{fill:#cccbca;}</style></defs><g transform="translate(1275 4530)"><path class="a" d="M495.361,189.726c-45.541,0-82.661-36.5-82.661-81.413S449.819,26.9,495.361,26.9s82.661,36.5,82.661,81.413S540.9,189.726,495.361,189.726Z" transform="translate(-408.489 -26.9)"/><rect class="b" width="63.633" height="10.45" transform="translate(14.338 109.136) rotate(-65.229)"/><rect class="c" width="50.22" height="10.45" transform="matrix(0.419, -0.908, 0.908, 0.419, 17.444, 103.148)"/><rect class="d" width="41.486" height="10.45" transform="translate(19.111 99.147) rotate(-65.229)"/><path class="b" d="M442.456,120.706H425.3L451.97,63h17.156Z" transform="translate(-401.438 -6.697)"/><path class="e" d="M454.316,60H435.6l10.294,4.679h18.56Z" transform="translate(-395.673 -8.376)"/><rect class="f" width="10.917" height="76.422" transform="translate(49.908 37.587)"/><rect class="c" width="10.917" height="6.239" transform="translate(49.908 50.064)"/><rect class="c" width="10.917" height="1.56" transform="translate(49.908 45.385)"/><rect class="c" width="10.917" height="6.239" transform="translate(49.908 93.734)"/><rect class="c" width="10.917" height="1.56" transform="translate(49.908 103.092)"/><rect class="g" width="9.358" height="87.34" transform="translate(74.862 26.67)"/><rect class="h" width="9.358" height="74.862" transform="translate(74.862 32.908)"/><rect class="g" width="17.156" height="81.101" transform="translate(84.22 32.908)"/><rect class="g" width="17.156" height="6.239" transform="translate(84.22 25.11)"/><rect class="c" width="15.596" height="65.505" transform="translate(82.661 48.505)"/><rect class="i" width="15.596" height="51.468" transform="translate(82.661 54.743)"/><rect class="c" width="1.56" height="34.312" transform="translate(88.899 64.101)"/><rect class="c" width="1.56" height="17.156" transform="translate(92.018 64.101)"/><rect class="f" width="15.596" height="71.743" transform="translate(98.257 40.706)"/><rect class="b" width="15.596" height="9.358" transform="translate(98.257 40.706)"/><rect class="c" width="3.119" height="43.67" transform="translate(104.495 59.422)"/><rect class="b" width="17.156" height="71.743" transform="translate(113.853 40.706)"/><rect class="c" width="9.358" height="68.624" transform="translate(113.853 45.385)"/><rect class="j" width="1.56" height="43.67" transform="translate(118.532 57.862)"/><rect class="e" width="17.156" height="68.624" transform="translate(123.211 45.385)"/><rect class="h" width="15.596" height="63.945" transform="translate(123.211 50.064)"/><rect class="h" width="15.596" height="38.991" transform="translate(123.211 62.541)"/><rect class="c" width="15.596" height="3.119" transform="translate(123.211 104.651)"/><rect class="c" width="15.596" height="3.119" transform="translate(123.211 54.743)"/><rect class="g" width="17.156" height="63.945" transform="translate(138.807 50.064)"/><rect class="b" width="12.477" height="81.101" transform="translate(62.385 32.908)"/><rect class="j" width="12.477" height="59.266" transform="translate(62.385 45.385)"/><rect class="c" width="12.477" height="45.229" transform="translate(62.385 53.184)"/><rect class="i" width="140.367" height="3.119" transform="translate(6.239 120.248)"/><rect class="b" width="17.156" height="3.119" transform="translate(146.605 120.248)"/><rect class="d" width="152.844" height="6.239" transform="translate(0 114.009)"/><rect class="b" width="17.156" height="6.239" transform="translate(152.844 114.009)"/></g></svg>