<svg xmlns="http://www.w3.org/2000/svg" viewBox="1273.013 3521.42 267.987 285.173"><defs><style>.a{fill:#ff8300;}.b{fill:#fffc00;}.c{fill:#fff;}.d{fill:#3f77eb;}</style></defs><g transform="translate(1273.013 3521.42)"><g transform="translate(0 144.711)"><path class="a" d="M780.477,52.2l10.961,40.886L740.5,151.777l3.224-70.561L780.477,52.2Z" transform="translate(-651.52 -11.314)"/><path class="a" d="M820.839,53.913,780.217,46,726.7,102.053l68.347-8.573,25.792-39.567Z" transform="translate(-726.7 -46)"/></g><path class="b" d="M767.939,249.828,751.82,234.66,735.7,219.493C766.65,182.564,805.337,17.042,943.321,24.3,967.178,160.8,798.889,218.834,767.939,249.828Z" transform="translate(-677.67 -24.005)"/><path class="a" d="M812.918,82.378c-20.633-9.232-43.2-31.654-53.518-50.778a145.7,145.7,0,0,1,54.807-7.254c3.869,20.443,2.579,40.226-1.289,58.031Z" transform="translate(-548.555 -24.056)"/><ellipse class="c" cx="24.502" cy="25.059" rx="24.502" ry="25.059" transform="translate(170.224 56.344)"/><ellipse class="d" cx="19.988" cy="20.443" rx="19.988" ry="20.443" transform="translate(174.738 60.961)"/></g></svg>