<svg xmlns="http://www.w3.org/2000/svg" viewBox="1275 4217 166.847 164.329"><defs><style>.a{fill:#4a6ef4;}.b{fill:#e6e5e5;}.c{fill:#cccbca;}.d{fill:#6f13bf;}.e{fill:#fff;}.f{fill:#a43df2;}.g{fill:#01c6da;}.h{fill:#e5e8ec;}.i{fill:#fffc00;}.j{fill:#cdd5d7;}</style></defs><g transform="translate(1275 4217)"><path class="a" d="M623.423,195.329C577.462,195.329,540,158.5,540,113.164S577.462,31,623.423,31s83.424,36.832,83.424,82.164S669.385,195.329,623.423,195.329Z" transform="translate(-540 -31)"/><path class="b" d="M620.5,127.462H580.2L583.978,107h32.74Z" transform="translate(-516.924 12.626)"/><path class="c" d="M619.117,127.462,615.34,107H582.6l26.286,20.462Z" transform="translate(-515.546 12.626)"/><path class="b" d="M637.693,123.148H573v-1.259A1.819,1.819,0,0,1,574.889,120h60.758a1.709,1.709,0,0,1,1.417.63,2.344,2.344,0,0,1,.63,1.417Z" transform="translate(-521.057 20.089)"/><path class="b" d="M691.753,99v9.287a3.361,3.361,0,0,1-3.463,3.305H550.563a3.466,3.466,0,0,1-3.463-3.305V99Z" transform="translate(-535.924 8.034)"/><path class="d" d="M691.811,134.016V41.62A3.633,3.633,0,0,0,688.348,38H550.463A3.494,3.494,0,0,0,547,41.463v92.553Z" transform="translate(-535.982 -26.982)"/><rect class="e" width="130.644" height="81.85" transform="translate(17.314 17.314)"/><rect class="c" width="22.036" height="1.574" transform="translate(51.943 26.759)"/><rect class="c" width="22.036" height="1.574" transform="translate(51.943 31.481)"/><rect class="c" width="22.036" height="1.574" transform="translate(51.943 37.777)"/><rect class="c" width="22.036" height="1.574" transform="translate(51.943 42.499)"/><rect class="c" width="44.073" height="1.574" transform="translate(29.907 48.795)"/><rect class="c" width="44.073" height="1.574" transform="translate(29.907 53.517)"/><rect class="c" width="44.073" height="1.574" transform="translate(29.907 59.813)"/><rect class="c" width="44.073" height="1.574" transform="translate(29.907 66.109)"/><rect class="c" width="44.073" height="1.574" transform="translate(29.907 70.831)"/><rect class="c" width="44.073" height="1.574" transform="translate(29.907 77.127)"/><rect class="c" width="44.073" height="1.574" transform="translate(29.907 81.85)"/><path class="f" d="M570.333,48h-4.092L559,66.888h4.092l1.574-4.722h7.555l1.574,4.722h4.25Zm-4.565,11.018,2.518-6.926,2.676,6.926Z" transform="translate(-529.093 -21.242)"/><rect class="c" width="44.073" height="1.574" transform="translate(89.72 26.759)"/><rect class="c" width="44.073" height="1.574" transform="translate(89.72 31.481)"/><rect class="c" width="44.073" height="1.574" transform="translate(89.72 37.777)"/><rect class="c" width="44.073" height="1.574" transform="translate(89.72 44.073)"/><rect class="c" width="44.073" height="1.574" transform="translate(89.72 48.795)"/><rect class="c" width="44.073" height="1.574" transform="translate(89.72 55.091)"/><rect class="c" width="44.073" height="1.574" transform="translate(89.72 59.813)"/><rect class="c" width="44.073" height="1.574" transform="translate(89.72 66.109)"/><rect class="c" width="44.073" height="1.574" transform="translate(89.72 70.831)"/><rect class="c" width="44.073" height="1.574" transform="translate(89.72 77.127)"/><rect class="c" width="44.073" height="1.574" transform="translate(89.72 81.85)"/><path class="g" d="M634.395,156.89a39.748,39.748,0,1,1,40.3-39.666A39.839,39.839,0,0,1,634.395,156.89Z" transform="translate(-508.315 -4.367)"/><ellipse class="f" cx="39.98" cy="39.98" rx="39.98" ry="39.98" transform="translate(86.099 72.563)"/><ellipse class="d" cx="37.462" cy="37.462" rx="37.462" ry="37.462" transform="translate(88.618 75.081)"/><ellipse class="h" cx="35.573" cy="35.573" rx="35.573" ry="35.573" transform="translate(90.507 76.97)"/><path class="i" d="M662.16,114.973h0A35.536,35.536,0,0,0,626.587,79.4,34.979,34.979,0,0,0,608.8,84.122l17.786,30.851Z" transform="translate(-500.507 -3.217)"/><path class="j" d="M620.1,102l17.629,30.851A35.646,35.646,0,0,0,655.673,102Z" transform="translate(-494.02 9.756)"/><rect class="d" width="1.574" height="1.574" transform="translate(125.922 78.701)"/><rect class="d" width="1.574" height="7.87" transform="translate(125.922 78.701)"/><path class="d" d="M614.18,90.654l-1.1.63L609.3,84.83l1.1-.63Z" transform="translate(-500.22 -0.462)"/><path class="d" d="M608.883,95.478l-.63,1.1L601.8,92.644l.63-.944Z" transform="translate(-504.525 3.844)"/><rect class="d" width="7.87" height="1.574" transform="translate(92.868 111.756)"/><path class="d" d="M608.254,110.2l.63,1.1-6.453,3.778-.63-1.1Z" transform="translate(-504.525 14.463)"/><path class="d" d="M613.078,116.3l1.1.63-3.778,6.454-1.1-.63Z" transform="translate(-500.22 17.965)"/><rect class="d" width="1.574" height="7.87" transform="translate(125.922 138.515)"/><rect class="d" width="1.259" height="7.555" transform="translate(138.25 134.747) rotate(-29.98)"/><rect class="d" width="1.259" height="7.555" transform="translate(147.644 125.73) rotate(-59.961)"/><rect class="d" width="7.87" height="1.574" transform="translate(151.107 111.756)"/><path class="d" d="M634.53,96.579l-.63-1.1,6.453-3.778.63,1.1Z" transform="translate(-486.099 3.844)"/><rect class="d" width="7.555" height="1.259" transform="translate(138.254 90.11) rotate(-59.969)"/><rect class="d" width="1.259" height="1.259" transform="matrix(0.994, -0.104, 0.104, 0.994, 122.057, 79.817)"/><path class="d" d="M616.817,83.159l-1.259.157-.157-1.1,1.1-.315Z" transform="translate(-496.718 -1.782)"/><rect class="d" width="1.259" height="1.259" transform="matrix(0.951, -0.31, 0.31, 0.951, 115.238, 81.314)"/><rect class="d" width="1.259" height="1.259" transform="translate(112.197 82.619) rotate(-24.079)"/><rect class="d" width="1.259" height="1.259" transform="translate(109.151 84.261) rotate(-30.16)"/><path class="d" d="M609.231,86.244l-.944.787-.787-.944.944-.787Z" transform="translate(-501.253 0.17)"/><rect class="d" width="1.259" height="1.259" transform="translate(103.645 88.401) rotate(-41.928)"/><path class="d" d="M606.031,88.987l-.787.944-.944-.787.787-.944Z" transform="translate(-503.09 1.834)"/><rect class="d" width="1.259" height="1.259" transform="translate(99.081 93.655) rotate(-53.708)"/><path class="d" d="M603.374,92.33l-.472.944-1.1-.63.63-.944Z" transform="translate(-504.525 3.844)"/><rect class="d" width="1.259" height="1.259" transform="translate(95.637 99.688) rotate(-65.883)"/><rect class="d" width="1.259" height="1.259" transform="translate(94.52 102.825) rotate(-71.971)"/><path class="d" d="M601.074,98.015l-.315,1.259-1.259-.315.315-1.259Z" transform="translate(-505.845 7.288)"/><rect class="d" width="1.259" height="1.259" transform="matrix(0.108, -0.994, 0.994, 0.108, 93.248, 109.599)"/><rect class="d" width="1.574" height="1.574" transform="translate(92.868 111.756)"/><path class="d" d="M600.459,104.2l.157,1.259h-1.259l-.157-1.1Z" transform="translate(-506.017 11.019)"/><rect class="d" width="1.259" height="1.259" transform="matrix(0.979, -0.205, 0.205, 0.979, 93.706, 118.626)"/><path class="d" d="M601.2,108.3l.472,1.259-1.259.315-.315-1.1Z" transform="translate(-505.501 13.372)"/><rect class="d" width="1.259" height="1.259" transform="translate(95.618 125.303) rotate(-23.861)"/><path class="d" d="M602.9,112.2l.472,1.1-.944.63-.63-1.1Z" transform="translate(-504.525 15.611)"/><rect class="d" width="1.259" height="1.259" transform="translate(99.143 131.431) rotate(-35.788)"/><rect class="d" width="1.259" height="1.259" transform="translate(101.146 134.083) rotate(-41.619)"/><rect class="d" width="1.259" height="1.259" transform="translate(103.587 136.44) rotate(-47.78)"/><rect class="d" width="1.259" height="1.259" transform="matrix(0.587, -0.809, 0.809, 0.587, 106.152, 138.852)"/><rect class="d" width="1.259" height="1.259" transform="matrix(0.503, -0.864, 0.864, 0.503, 108.026, 140.849)"/><path class="d" d="M611.672,120.7l1.259.472-.63,1.259-1.1-.63Z" transform="translate(-499.129 20.49)"/><rect class="d" width="1.259" height="1.259" transform="translate(115.199 143.743) rotate(-71.831)"/><path class="d" d="M615.615,122.1l1.259.315-.315,1.1-1.259-.157Z" transform="translate(-496.776 21.294)"/><rect class="d" width="1.259" height="1.259" transform="matrix(0.108, -0.994, 0.994, 0.108, 121.943, 145.151)"/><path class="d" d="M621.574,123H620v1.574h1.574Z" transform="translate(-494.078 21.811)"/><rect class="d" width="1.259" height="1.259" transform="translate(128.719 144.101) rotate(-5.86)"/><path class="d" d="M623.9,122.415l1.259-.315.157,1.259-1.1.157Z" transform="translate(-491.839 21.294)"/><path class="d" d="M625.9,121.972l1.259-.472.315,1.259-1.1.315Z" transform="translate(-490.691 20.95)"/><rect class="d" width="1.259" height="1.259" transform="matrix(0.914, -0.405, 0.405, 0.914, 138.486, 141.604)"/><path class="d" d="M629.8,120.33l1.1-.63.63,1.1-1.1.63Z" transform="translate(-488.452 19.916)"/><path class="d" d="M631.6,119.23l1.1-.63.63.944-.945.787Z" transform="translate(-487.419 19.285)"/><rect class="d" width="1.259" height="1.259" transform="matrix(0.745, -0.667, 0.667, 0.745, 146.731, 136.417)"/><rect class="d" width="1.259" height="1.259" transform="matrix(0.671, -0.742, 0.742, 0.671, 149.292, 134.081)"/><rect class="d" width="1.259" height="1.259" transform="translate(151.378 131.738) rotate(-53.97)"/><path class="d" d="M637.3,113.3l.63-1.1,1.1.63-.63,1.1Z" transform="translate(-484.147 15.611)"/><rect class="d" width="1.259" height="1.259" transform="translate(154.712 125.922) rotate(-65.731)"/><path class="d" d="M639.1,109.559l.472-1.259,1.1.472-.315,1.1Z" transform="translate(-483.114 13.372)"/><path class="d" d="M639.7,107.559l.315-1.259,1.259.157-.315,1.259Z" transform="translate(-482.769 12.224)"/><rect class="d" width="1.259" height="1.259" transform="translate(157.471 116.497) rotate(-83.84)"/><rect class="d" width="1.574" height="1.574" transform="translate(157.403 111.756)"/><path class="d" d="M640.257,101.317l-.157-1.259,1.259-.157.157,1.259Z" transform="translate(-482.54 8.551)"/><path class="d" d="M640.015,99.217l-.315-1.259,1.259-.157.315,1.1Z" transform="translate(-482.769 7.345)"/><path class="d" d="M639.572,97.174l-.472-1.1,1.259-.472.315,1.259Z" transform="translate(-483.114 6.082)"/><rect class="d" width="1.259" height="1.259" transform="translate(154.784 98.992) rotate(-24.03)"/><rect class="d" width="1.259" height="1.259" transform="translate(153.268 96.062) rotate(-30.031)"/><rect class="d" width="1.259" height="1.259" transform="translate(151.324 93.394) rotate(-36.03)"/><path class="d" d="M635.587,89.931l-.787-.944.944-.787.787.944Z" transform="translate(-485.582 1.834)"/><path class="d" d="M634.245,88.431l-.944-.787.787-.944.944.787Z" transform="translate(-486.443 0.973)"/><path class="d" d="M632.7,87.031l-1.1-.787.787-.944.945.787Z" transform="translate(-487.419 0.17)"/><rect class="d" width="1.259" height="1.259" transform="matrix(0.501, -0.865, 0.865, 0.501, 141.468, 84.727)"/><rect class="d" width="1.259" height="1.259" transform="translate(138.43 83.26) rotate(-65.939)"/><path class="d" d="M627.1,83.974l-1.1-.315.315-1.259,1.259.472Z" transform="translate(-490.634 -1.495)"/><path class="d" d="M625.159,83.317l-1.259-.157.315-1.259,1.1.315Z" transform="translate(-491.839 -1.782)"/><rect class="d" width="1.259" height="1.259" transform="matrix(0.101, -0.995, 0.995, 0.101, 128.861, 80.918)"/><path class="d" d="M622.305,103.311l-.63.944L610.5,97.8l.472-1.1Z" transform="translate(-499.531 6.714)"/><path class="d" d="M620.318,102.831l-2.519-1.417.158-.315,2.518,1.417Z" transform="translate(-495.34 9.239)"/><rect class="d" width="22.351" height="1.259" transform="translate(131.367 107.718) rotate(-35.459)"/><path class="d" d="M620.757,103.492l-.157-.315,5.194-3.778.157.315Z" transform="translate(-493.733 8.264)"/><path class="d" d="M620.5,103.8a1.1,1.1,0,1,1,1.1-1.1h0A1.076,1.076,0,0,1,620.5,103.8Zm-.157-2.046a.843.843,0,0,0-.787.787.744.744,0,0,0,.787.787c.472,0,.787-.315,1.574-.787h0a7.352,7.352,0,0,0-1.574-.787Z" transform="translate(-494.422 9.527)"/><path class="a" d="M620.387,103.374a.787.787,0,1,1,.787-.787A.843.843,0,0,1,620.387,103.374Zm-.157-1.259a.417.417,0,0,0-.472.472h0c0,.315.315.472.472.315a.339.339,0,0,0,.315-.315c.157-.315,0-.472-.315-.472Z" transform="translate(-494.307 9.641)"/><rect class="a" width="1.574" height="26.759" transform="translate(125.922 113.33)"/><rect class="a" width="1.574" height="3.148" transform="translate(125.922 108.608)"/></g></svg>