<svg xmlns="http://www.w3.org/2000/svg" viewBox="475 4532 170 158.828"><defs><style>.a{fill:#a43df2;}.b{fill:#e5e8ec;}.c{fill:#cdd5d7;}.d{fill:#d6d00b;}.e{fill:#fffc00;}.f{fill:#4a6ef4;}.g{fill:#e6e5e5;}</style></defs><g transform="translate(475 4532)"><path class="a" d="M234.418,179.12c-44.085,0-80.018-35.329-80.018-78.81S190.332,21.5,234.418,21.5s80.018,35.329,80.018,78.81S278.5,179.12,234.418,179.12Z" transform="translate(-147.757 -20.594)"/><path class="b" d="M211.839,65.5l6.945,32.007,6.945,59.334H198.1l6.794-59.334Z" transform="translate(-125.48 1.836)"/><path class="c" d="M210.463,65.5l4.831,32.007,4.831,59.334H200.8l4.831-59.334Z" transform="translate(-124.104 1.836)"/><path class="b" d="M208.169,65.5l1.51,32.007,1.359,59.334H205.3l1.51-59.334Z" transform="translate(-121.81 1.836)"/><ellipse class="c" cx="16.004" cy="16.004" rx="16.004" ry="16.004" transform="translate(128.783 122.442)"/><path class="c" d="M185.233,123.363a13.068,13.068,0,0,0-6.643-17.815,13.145,13.145,0,0,0-17.06,17.815Z" transform="translate(-144.772 21.726)"/><path class="b" d="M227.076,126.584c0-.453.151-1.057.151-1.51a13.373,13.373,0,0,0-13.135-13.286,12.817,12.817,0,0,0-5.737,1.359,16.589,16.589,0,0,0-32.309,1.963,17.777,17.777,0,0,0-10.568,6.19,9.033,9.033,0,0,0-11.776,8.908,7.013,7.013,0,0,0,.906,3.472,9.292,9.292,0,0,0,8,5.133h64.316a5.639,5.639,0,0,0,5.284-3.321,6.27,6.27,0,0,0-5.133-8.908Z" transform="translate(-148.115 20.015)"/><ellipse class="b" cx="6.19" cy="6.19" rx="6.19" ry="6.19" transform="translate(123.636 146.162) rotate(-0.15)"/><path class="b" d="M259.406,131.663a12.4,12.4,0,1,0-23.25-.151h23.25Z" transform="translate(-106.466 27.013)"/><ellipse class="b" cx="13.135" cy="13.135" rx="13.135" ry="13.135" transform="translate(111.421 129.689)"/><path class="c" d="M256.861,125.916a14.185,14.185,0,0,0-6.945,1.963,20.043,20.043,0,0,0-38.8-6.794,20.767,20.767,0,0,0-6.794-1.208c-8.455,0-15.7,7.549-18.721,15.1h83.792A13.342,13.342,0,0,0,256.861,125.916Z" transform="translate(-131.852 23.551)"/><path class="d" d="M211.172,78.1C204.982,78.1,200,86.4,200,96.67a31.785,31.785,0,0,0,.3,3.774h21.892a31.779,31.779,0,0,0,.3-3.774C222.345,86.555,217.362,78.1,211.172,78.1Z" transform="translate(-124.512 8.259)"/><path class="e" d="M208.2,78.1c-4.529,0-8.3,8.3-8.3,18.57a30.325,30.325,0,0,0,.151,3.774h16.306a31.549,31.549,0,0,0,.151-3.774C216.507,86.555,212.884,78.1,208.2,78.1Z" transform="translate(-124.563 8.259)"/><path class="e" d="M209.533,50.6c0,19.778-10.116,37.14-25.213,46.048l-1.359,1.208c-2.718,2.567-1.812,14.494-1.812,14.494h28.535V43.2a31.877,31.877,0,0,1-.3,3.925A26.725,26.725,0,0,1,209.533,50.6Z" transform="translate(-134.195 -9.532)"/><path class="c" d="M209.38,64.4a52.858,52.858,0,0,1-24.005,27.176l-1.51,1.208c-1.812,1.51-2.265,6.643-2.265,10.266h27.78Z" transform="translate(-133.891 1.275)"/><path class="b" d="M183.657,95.39a3.043,3.043,0,0,0-1.057,1.359h26.27V73.8a57.615,57.615,0,0,1-23.552,20.231Z" transform="translate(-133.382 6.067)"/><path class="e" d="M214.151,50.6c0,19.778,10.115,37.14,25.213,46.048l1.359,1.208c2.718,2.567,1.812,14.494,1.812,14.494H214V43.2a31.88,31.88,0,0,0,.3,3.925A26.727,26.727,0,0,0,214.151,50.6Z" transform="translate(-117.375 -9.532)"/><path class="c" d="M214,64.4a52.858,52.858,0,0,0,24.005,27.176l1.51,1.208c1.812,1.51,2.265,6.643,2.265,10.266H214Z" transform="translate(-117.375 1.275)"/><path class="b" d="M239.213,95.39a3.043,3.043,0,0,1,1.057,1.359H214V73.8a57.616,57.616,0,0,0,23.552,20.231Z" transform="translate(-117.375 6.067)"/><path class="b" d="M222.647,123.664V52.252c0-6.492-4.982-27.78-11.323-31.252C204.982,24.472,200,45.76,200,52.252v71.412Z" transform="translate(-124.512 -20.849)"/><path class="c" d="M207.151,20.9l-.151.151V123.715h12.078V52.152C219.078,45.66,213.945,24.372,207.151,20.9Z" transform="translate(-120.943 -20.9)"/><path class="e" d="M202.1,35.945h16c-1.963-6.643-4.831-12.833-8-14.645C206.931,23.112,204.063,29.3,202.1,35.945Z" transform="translate(-123.441 -20.696)"/><path class="d" d="M207,35.945h8.153c-1.963-6.643-4.831-12.833-8-14.645l-.151.151V35.945Z" transform="translate(-120.943 -20.696)"/><path class="f" d="M216.624,40.746c-.453,1.057-1.963.6-3.774,0a9.158,9.158,0,0,0-6.341,0c-1.812.6-3.321,1.057-3.774,0h0c-.453-1.057.6-3.472,3.02-4.378a10.494,10.494,0,0,1,8,0c2.265.906,3.472,3.321,2.869,4.378Z" transform="translate(-123.17 -13.419)"/><path class="e" d="M193.982,78.1c-2.718,0-4.982,8.3-4.982,18.57a30.319,30.319,0,0,0,.151,3.774h9.662c0-1.208.151-2.567.151-3.774C198.813,86.555,196.7,78.1,193.982,78.1Z" transform="translate(-130.119 8.259)"/><path class="d" d="M192.963,78.1c-.755,0-1.359.6-1.963,1.661,2.265,1.208,3.925,8.455,3.925,17.211a29.093,29.093,0,0,1-.151,3.623h2.869c0-1.208.151-2.567.151-3.774C197.794,86.555,195.68,78.1,192.963,78.1Z" transform="translate(-129.1 8.259)"/><path class="e" d="M224.082,78.1c-2.718,0-4.982,8.3-4.982,18.57a30.325,30.325,0,0,0,.151,3.774h9.663c0-1.208.151-2.567.151-3.774C229.064,86.555,226.8,78.1,224.082,78.1Z" transform="translate(-114.775 8.259)"/><path class="d" d="M223.063,78.1c-.755,0-1.359.6-1.963,1.661,2.265,1.208,3.925,8.455,3.925,17.211a29.1,29.1,0,0,1-.151,3.623h3.02c0-1.208.151-2.567.151-3.774C228.045,86.555,225.78,78.1,223.063,78.1Z" transform="translate(-113.755 8.259)"/><ellipse class="g" cx="6.643" cy="6.643" rx="6.643" ry="6.643" transform="translate(120.631 104.929)"/><ellipse class="g" cx="4.227" cy="4.227" rx="4.227" ry="4.227" transform="translate(48.011 52.087)"/><ellipse class="g" cx="2.869" cy="2.869" rx="2.869" ry="2.869" transform="translate(47.86 101.457)"/><ellipse class="g" cx="1.963" cy="1.963" rx="1.963" ry="1.963" transform="translate(142.069 4.076)"/><ellipse class="g" cx="5.133" cy="5.133" rx="5.133" ry="5.133" transform="translate(29.742 9.814)"/><path class="g" d="M267.7,69.649a7.476,7.476,0,0,0-7.549,7.549,7.476,7.476,0,0,0-7.549-7.549,7.476,7.476,0,0,0,7.549-7.549A7.476,7.476,0,0,0,267.7,69.649Z" transform="translate(-97.698 0.102)"/><path class="g" d="M247.468,49.084a5.349,5.349,0,0,0-5.284,5.284h0a5.251,5.251,0,0,0-5.284-5.284,5.349,5.349,0,0,0,5.284-5.284h0A5.453,5.453,0,0,0,247.468,49.084Z" transform="translate(-105.701 -9.226)"/><path class="g" d="M254.131,89.116a2.385,2.385,0,0,0-2.416,2.416h0a2.385,2.385,0,0,0-2.416-2.416h0a2.385,2.385,0,0,0,2.416-2.416h0a2.483,2.483,0,0,0,2.416,2.416Z" transform="translate(-99.38 12.643)"/><path class="g" d="M176.405,98.853a8.119,8.119,0,0,0-8.153,8.153,8.119,8.119,0,0,0-8.153-8.153,8.119,8.119,0,0,0,8.153-8.153A8.119,8.119,0,0,0,176.405,98.853Z" transform="translate(-144.851 14.682)"/><path class="g" d="M156.341,47.571a3.1,3.1,0,0,0-3.171,3.171A3.1,3.1,0,0,0,150,47.571h0a3.189,3.189,0,0,0,3.171-3.171A3.1,3.1,0,0,0,156.341,47.571Z" transform="translate(-150 -8.92)"/><path class="g" d="M263.772,103.186a5.573,5.573,0,0,0-5.586,5.586h0a5.573,5.573,0,0,0-5.586-5.586h0a5.573,5.573,0,0,0,5.586-5.586h0a5.573,5.573,0,0,0,5.586,5.586Z" transform="translate(-97.698 18.199)"/></g></svg>